<svg xmlns="http://www.w3.org/2000/svg" width="36" height="36" viewBox="0 0 36 36" fill="none">
  <rect width="36" height="36" rx="18" fill="#131416"/>
  <path fill-rule="evenodd" clip-rule="evenodd" d="M11.8037 24.1963C12.1098 24.5023 12.6059 24.5023 12.912 24.1963L18 19.1082L23.088 24.1963C23.3941 24.5023 23.8902 24.5023 24.1963 24.1963C24.5023 23.8902 24.5023 23.3941 24.1963 23.088L18.5541 17.4459C18.2481 17.1399 17.7519 17.1399 17.4459 17.4459L11.8037 23.088C11.4977 23.3941 11.4977 23.8902 11.8037 24.1963Z" fill="white"/>
  <path fill-rule="evenodd" clip-rule="evenodd" d="M11.8037 11.8037C12.1098 11.4977 12.6059 11.4977 12.912 11.8037L18 16.8918L23.088 11.8037C23.3941 11.4977 23.8902 11.4977 24.1963 11.8037C24.5023 12.1098 24.5023 12.6059 24.1963 12.912L18.5541 18.5541C18.2481 18.8601 17.7519 18.8601 17.4459 18.5541L11.8037 12.912C11.4977 12.6059 11.4977 12.1098 11.8037 11.8037Z" fill="white"/>
</svg>