<svg xmlns="http://www.w3.org/2000/svg" width="41" height="37" viewBox="0 0 41 37" fill="none">
  <g clip-path="url(#clip0_229_15954)">
    <path d="M29.2914 0H11.7088C10.6654 0 9.70396 0.565798 9.18027 1.48622L0.390933 17.0138C-0.128846 17.9342 -0.128846 19.0698 0.390933 19.9902L9.18027 35.5138C9.70005 36.4342 10.6654 37 11.7088 37H29.2914C30.3349 37 31.2963 36.4342 31.82 35.5138L40.6093 19.9902C41.1291 19.0698 41.1291 17.9342 40.6093 17.0138L31.82 1.48622C31.3002 0.565798 30.3349 0 29.2914 0Z" fill="url(#paint0_linear_229_15954)"/>
    <path d="M28.752 2.15161H12.248C11.6267 2.15161 11.0522 2.49029 10.7395 3.04015L2.48949 17.6114C2.17684 18.1613 2.17684 18.8387 2.48949 19.3845L10.7395 33.9558C11.0522 34.5057 11.6267 34.8444 12.248 34.8444H28.752C29.3734 34.8444 29.9479 34.5057 30.2605 33.9558L38.5106 19.3845C38.8232 18.8347 38.8232 18.1613 38.5106 17.6114L30.2605 3.04015C29.9479 2.49029 29.3734 2.15161 28.752 2.15161Z" fill="url(#paint1_linear_229_15954)"/>
    <path d="M20.502 15.6112C21.7213 15.6112 22.8664 16.0933 23.7262 16.9739C24.5859 17.8505 25.0627 19.018 25.0627 20.2611C25.0627 21.5043 24.5898 22.6717 23.7262 23.5483C22.8664 24.4249 21.7213 24.911 20.502 24.911C19.2826 24.911 18.1376 24.4289 17.2778 23.5483C16.418 22.6678 15.9412 21.5043 15.9412 20.2611H11.5094C11.5094 22.7116 12.4434 25.0146 14.1435 26.7439C15.8435 28.4771 18.1024 29.4294 20.502 29.4294C22.9015 29.4294 25.1643 28.4771 26.8605 26.7439C28.5605 25.0106 29.4945 22.7076 29.4945 20.2611C29.4945 17.8146 28.5605 15.5076 26.8605 13.7784C25.1604 12.0451 22.9015 11.0928 20.502 11.0928V7.56653L12.3223 13.352L20.502 19.1375V15.6112Z" fill="url(#paint2_linear_229_15954)"/>
  </g>
  <defs>
    <linearGradient id="paint0_linear_229_15954" x1="32.2655" y1="0.155396" x2="8.148" y2="36.3293" gradientUnits="userSpaceOnUse">
      <stop stop-color="#9E92EB"/>
      <stop offset="1" stop-color="#5E5CC8"/>
    </linearGradient>
    <linearGradient id="paint1_linear_229_15954" x1="7.99602" y1="5.75359" x2="33.4879" y2="30.7529" gradientUnits="userSpaceOnUse">
      <stop stop-color="#3F278C"/>
      <stop offset="1" stop-color="#9736A5"/>
    </linearGradient>
    <linearGradient id="paint2_linear_229_15954" x1="11.5055" y1="18.5" x2="29.4945" y2="18.5" gradientUnits="userSpaceOnUse">
      <stop stop-color="#FF8400"/>
      <stop offset="0.19" stop-color="#FFA42F"/>
      <stop offset="0.37" stop-color="#FFBD52"/>
      <stop offset="0.46" stop-color="#FFC760"/>
      <stop offset="0.5" stop-color="#FFB94D"/>
      <stop offset="0.58" stop-color="#FFA631"/>
      <stop offset="0.66" stop-color="#FF971B"/>
      <stop offset="0.75" stop-color="#FF8C0B"/>
      <stop offset="0.85" stop-color="#FF8502"/>
      <stop offset="1" stop-color="#FF8400"/>
    </linearGradient>
    <clipPath id="clip0_229_15954">
      <rect width="41" height="37" fill="white"/>
    </clipPath>
  </defs>
</svg>