<svg width="128" height="52" viewBox="0 0 128 52" fill="none" xmlns="http://www.w3.org/2000/svg">
<rect width="128" height="52" rx="26" fill="#4DC591"/>
<mask id="mask0" mask-type="alpha" maskUnits="userSpaceOnUse" x="0" y="0" width="128" height="52">
<rect width="128" height="52" rx="26" fill="#58DCA3"/>
</mask>
<g mask="url(#mask0)">
<g opacity="0.2">
<rect x="42.4512" y="53.6888" width="102.065" height="13.1936" transform="rotate(-37.8943 42.4512 53.6888)" fill="#58DCA3"/>
<rect x="78.9141" y="54.0625" width="102.673" height="13.1936" transform="rotate(-37.8943 78.9141 54.0625)" fill="#58DCA3"/>
<rect x="8.45703" y="51.3943" width="98.329" height="13.1936" transform="rotate(-37.8943 8.45703 51.3943)" fill="#58DCA3"/>
<rect x="-15.4238" y="41.2289" width="81.7783" height="13.1936" transform="rotate(-37.8943 -15.4238 41.2289)" fill="#58DCA3"/>
</g>
</g>
<path d="M24.976 30.16C24.112 30.16 23.2747 30.0373 22.464 29.792C21.664 29.5467 21.0293 29.2213 20.56 28.816L21.28 27.2C21.7387 27.5627 22.2987 27.8613 22.96 28.096C23.632 28.32 24.304 28.432 24.976 28.432C25.808 28.432 26.4267 28.2987 26.832 28.032C27.248 27.7653 27.456 27.4133 27.456 26.976C27.456 26.656 27.3387 26.3947 27.104 26.192C26.88 25.9787 26.592 25.8133 26.24 25.696C25.888 25.5787 25.408 25.4453 24.8 25.296C23.9467 25.0933 23.2533 24.8907 22.72 24.688C22.1973 24.4853 21.744 24.1707 21.36 23.744C20.9867 23.3067 20.8 22.72 20.8 21.984C20.8 21.3653 20.9653 20.8053 21.296 20.304C21.6373 19.792 22.144 19.3867 22.816 19.088C23.4987 18.7893 24.3307 18.64 25.312 18.64C25.9947 18.64 26.6667 18.7253 27.328 18.896C27.9893 19.0667 28.56 19.312 29.04 19.632L28.384 21.248C27.8933 20.96 27.3813 20.7413 26.848 20.592C26.3147 20.4427 25.7973 20.368 25.296 20.368C24.4747 20.368 23.8613 20.5067 23.456 20.784C23.0613 21.0613 22.864 21.4293 22.864 21.888C22.864 22.208 22.976 22.4693 23.2 22.672C23.4347 22.8747 23.728 23.0347 24.08 23.152C24.432 23.2693 24.912 23.4027 25.52 23.552C26.352 23.744 27.0347 23.9467 27.568 24.16C28.1013 24.3627 28.5547 24.6773 28.928 25.104C29.312 25.5307 29.504 26.1067 29.504 26.832C29.504 27.4507 29.3333 28.0107 28.992 28.512C28.6613 29.0133 28.1547 29.4133 27.472 29.712C26.7893 30.0107 25.9573 30.16 24.976 30.16ZM35.2945 30.112C34.4092 30.112 33.6145 29.9253 32.9105 29.552C32.2065 29.1787 31.6572 28.6613 31.2625 28C30.8678 27.328 30.6705 26.5707 30.6705 25.728C30.6705 24.8853 30.8678 24.1333 31.2625 23.472C31.6572 22.8107 32.2012 22.2933 32.8945 21.92C33.5985 21.5467 34.3985 21.36 35.2945 21.36C36.1372 21.36 36.8732 21.5307 37.5025 21.872C38.1425 22.2133 38.6225 22.704 38.9425 23.344L37.4065 24.24C37.1612 23.8453 36.8518 23.552 36.4785 23.36C36.1158 23.1573 35.7158 23.056 35.2785 23.056C34.5318 23.056 33.9132 23.3013 33.4225 23.792C32.9318 24.272 32.6865 24.9173 32.6865 25.728C32.6865 26.5387 32.9265 27.1893 33.4065 27.68C33.8972 28.16 34.5212 28.4 35.2785 28.4C35.7158 28.4 36.1158 28.304 36.4785 28.112C36.8518 27.9093 37.1612 27.6107 37.4065 27.216L38.9425 28.112C38.6118 28.752 38.1265 29.248 37.4865 29.6C36.8572 29.9413 36.1265 30.112 35.2945 30.112ZM44.3864 30.112C43.5224 30.112 42.7437 29.9253 42.0504 29.552C41.357 29.1787 40.813 28.6613 40.4184 28C40.0344 27.328 39.8424 26.5707 39.8424 25.728C39.8424 24.8853 40.0344 24.1333 40.4184 23.472C40.813 22.8107 41.357 22.2933 42.0504 21.92C42.7437 21.5467 43.5224 21.36 44.3864 21.36C45.261 21.36 46.045 21.5467 46.7384 21.92C47.4317 22.2933 47.9704 22.8107 48.3544 23.472C48.749 24.1333 48.9464 24.8853 48.9464 25.728C48.9464 26.5707 48.749 27.328 48.3544 28C47.9704 28.6613 47.4317 29.1787 46.7384 29.552C46.045 29.9253 45.261 30.112 44.3864 30.112ZM44.3864 28.4C45.1224 28.4 45.7304 28.1547 46.2104 27.664C46.6904 27.1733 46.9304 26.528 46.9304 25.728C46.9304 24.928 46.6904 24.2827 46.2104 23.792C45.7304 23.3013 45.1224 23.056 44.3864 23.056C43.6504 23.056 43.0424 23.3013 42.5624 23.792C42.093 24.2827 41.8584 24.928 41.8584 25.728C41.8584 26.528 42.093 27.1733 42.5624 27.664C43.0424 28.1547 43.6504 28.4 44.3864 28.4ZM52.7629 22.704C53.3389 21.808 54.3522 21.36 55.8029 21.36V23.264C55.6322 23.232 55.4775 23.216 55.3389 23.216C54.5602 23.216 53.9522 23.4453 53.5149 23.904C53.0775 24.352 52.8589 25.0027 52.8589 25.856V30H50.8589V21.456H52.7629V22.704ZM65.4534 25.776C65.4534 25.9147 65.4427 26.112 65.4214 26.368H58.7174C58.8347 26.9973 59.1387 27.4987 59.6294 27.872C60.1307 28.2347 60.7494 28.416 61.4854 28.416C62.424 28.416 63.1974 28.1067 63.8054 27.488L64.8774 28.72C64.4934 29.1787 64.008 29.5253 63.4214 29.76C62.8347 29.9947 62.1734 30.112 61.4374 30.112C60.4987 30.112 59.672 29.9253 58.9574 29.552C58.2427 29.1787 57.688 28.6613 57.2934 28C56.9094 27.328 56.7174 26.5707 56.7174 25.728C56.7174 24.896 56.904 24.1493 57.2774 23.488C57.6614 22.816 58.1894 22.2933 58.8614 21.92C59.5334 21.5467 60.2907 21.36 61.1334 21.36C61.9654 21.36 62.7067 21.5467 63.3574 21.92C64.0187 22.2827 64.5307 22.8 64.8934 23.472C65.2667 24.1333 65.4534 24.9013 65.4534 25.776ZM61.1334 22.96C60.4934 22.96 59.9494 23.152 59.5014 23.536C59.064 23.9093 58.7974 24.4107 58.7014 25.04H63.5494C63.464 24.4213 63.2027 23.92 62.7654 23.536C62.328 23.152 61.784 22.96 61.1334 22.96ZM75.7164 30.112C74.831 30.112 74.0364 29.9253 73.3324 29.552C72.6284 29.1787 72.079 28.6613 71.6844 28C71.2897 27.328 71.0924 26.5707 71.0924 25.728C71.0924 24.8853 71.2897 24.1333 71.6844 23.472C72.079 22.8107 72.623 22.2933 73.3164 21.92C74.0204 21.5467 74.8204 21.36 75.7164 21.36C76.559 21.36 77.295 21.5307 77.9244 21.872C78.5644 22.2133 79.0444 22.704 79.3644 23.344L77.8284 24.24C77.583 23.8453 77.2737 23.552 76.9004 23.36C76.5377 23.1573 76.1377 23.056 75.7004 23.056C74.9537 23.056 74.335 23.3013 73.8444 23.792C73.3537 24.272 73.1084 24.9173 73.1084 25.728C73.1084 26.5387 73.3484 27.1893 73.8284 27.68C74.319 28.16 74.943 28.4 75.7004 28.4C76.1377 28.4 76.5377 28.304 76.9004 28.112C77.2737 27.9093 77.583 27.6107 77.8284 27.216L79.3644 28.112C79.0337 28.752 78.5484 29.248 77.9084 29.6C77.279 29.9413 76.5484 30.112 75.7164 30.112ZM84.3573 21.36C85.6159 21.36 86.5759 21.664 87.2373 22.272C87.9093 22.8693 88.2453 23.776 88.2453 24.992V30H86.3573V28.96C86.1119 29.3333 85.7599 29.6213 85.3013 29.824C84.8533 30.016 84.3093 30.112 83.6693 30.112C83.0293 30.112 82.4693 30.0053 81.9893 29.792C81.5093 29.568 81.1359 29.264 80.8693 28.88C80.6133 28.4853 80.4853 28.0427 80.4853 27.552C80.4853 26.784 80.7679 26.1707 81.3333 25.712C81.9093 25.2427 82.8106 25.008 84.0373 25.008H86.2453V24.88C86.2453 24.2827 86.0639 23.824 85.7013 23.504C85.3493 23.184 84.8213 23.024 84.1173 23.024C83.6373 23.024 83.1626 23.0987 82.6933 23.248C82.2346 23.3973 81.8453 23.6053 81.5253 23.872L80.7413 22.416C81.1893 22.0747 81.7279 21.8133 82.3573 21.632C82.9866 21.4507 83.6533 21.36 84.3573 21.36ZM84.0853 28.656C84.5866 28.656 85.0293 28.544 85.4133 28.32C85.8079 28.0853 86.0853 27.7547 86.2453 27.328V26.336H84.1813C83.0293 26.336 82.4533 26.7147 82.4533 27.472C82.4533 27.8347 82.5973 28.1227 82.8853 28.336C83.1733 28.5493 83.5733 28.656 84.0853 28.656ZM92.716 22.704C93.292 21.808 94.3053 21.36 95.756 21.36V23.264C95.5853 23.232 95.4307 23.216 95.292 23.216C94.5133 23.216 93.9053 23.4453 93.468 23.904C93.0307 24.352 92.812 25.0027 92.812 25.856V30H90.812V21.456H92.716V22.704ZM105.743 18.128V30H103.823V28.896C103.492 29.3013 103.081 29.6053 102.591 29.808C102.111 30.0107 101.577 30.112 100.991 30.112C100.169 30.112 99.4278 29.9307 98.7665 29.568C98.1158 29.2053 97.6038 28.6933 97.2305 28.032C96.8572 27.36 96.6705 26.592 96.6705 25.728C96.6705 24.864 96.8572 24.1013 97.2305 23.44C97.6038 22.7787 98.1158 22.2667 98.7665 21.904C99.4278 21.5413 100.169 21.36 100.991 21.36C101.556 21.36 102.073 21.456 102.543 21.648C103.012 21.84 103.412 22.128 103.743 22.512V18.128H105.743ZM101.231 28.4C101.711 28.4 102.143 28.2933 102.527 28.08C102.911 27.856 103.215 27.5413 103.439 27.136C103.663 26.7307 103.775 26.2613 103.775 25.728C103.775 25.1947 103.663 24.7253 103.439 24.32C103.215 23.9147 102.911 23.6053 102.527 23.392C102.143 23.168 101.711 23.056 101.231 23.056C100.751 23.056 100.319 23.168 99.9345 23.392C99.5505 23.6053 99.2465 23.9147 99.0225 24.32C98.7985 24.7253 98.6865 25.1947 98.6865 25.728C98.6865 26.2613 98.7985 26.7307 99.0225 27.136C99.2465 27.5413 99.5505 27.856 99.9345 28.08C100.319 28.2933 100.751 28.4 101.231 28.4Z" fill="white"/>
</svg>
