<svg width="979" height="606" viewBox="0 0 979 606" fill="none" xmlns="http://www.w3.org/2000/svg">
<path d="M484.115 590.372C484.637 589.581 485.865 589.893 485.946 590.838L486.13 592.988C486.166 593.405 486.458 593.755 486.861 593.867L488.942 594.441C489.856 594.693 489.938 595.957 489.065 596.326L487.077 597.166C486.691 597.329 486.448 597.714 486.467 598.132L486.564 600.289C486.606 601.236 485.43 601.705 484.809 600.989L483.395 599.357C483.122 599.041 482.68 598.929 482.288 599.076L480.267 599.834C479.38 600.168 478.57 599.194 479.06 598.382L480.174 596.533C480.39 596.175 480.361 595.72 480.1 595.393L478.754 593.706C478.163 592.964 478.839 591.893 479.762 592.108L481.865 592.597C482.272 592.692 482.695 592.523 482.926 592.174L484.115 590.372Z" fill="#FAD92B"/>
<rect width="20.5476" height="10.0492" rx="5.02458" transform="matrix(0.544729 0.838612 -0.836055 0.548646 966.872 87.6323)" fill="#51CE98"/>
<rect width="20.5476" height="10.0492" rx="5.02458" transform="matrix(-0.782108 -0.623143 0.619478 -0.785014 16.0693 122.693)" fill="#C285FF"/>
<rect width="20.5476" height="10.0492" rx="5.02458" transform="matrix(-0.993301 0.115555 -0.1202 -0.99275 686.616 515.976)" fill="#4DC591"/>
<circle cx="628" cy="41" r="7" fill="#FFDF56"/>
<circle cx="761.499" cy="4.5" r="4.5" fill="#FFA73F"/>
<circle cx="695.499" cy="289.5" r="4.5" fill="#F8B51F"/>
<circle cx="193.5" cy="569.5" r="7.5" fill="#51CE98"/>
</svg>
