<svg width="1088" height="735" viewBox="0 0 1088 735" fill="none" xmlns="http://www.w3.org/2000/svg">
<rect width="1088" height="735" rx="20" fill="#3BC5E4"/>
<mask id="mask0" mask-type="alpha" maskUnits="userSpaceOnUse" x="0" y="0" width="1088" height="735">
<rect width="1088" height="735" rx="20" fill="#3BC5E4"/>
</mask>
<g mask="url(#mask0)">
<path opacity="0.4" d="M8.75264 484.23C-83.9478 540.678 -105.424 613.845 -104.574 643.372L-21.4 669.159C-13.2045 649.421 18.1831 600.661 78.169 563.525C153.151 517.104 346.411 627.996 494.329 543.582C642.247 459.168 649.755 336.32 768.609 285.376C887.464 234.432 1038.8 296.076 1110.4 251.438C1167.68 215.728 1227.16 125.647 1249.75 85.0711L1127.23 10.8378C1126.17 30.7095 1109.83 84.8538 1053.02 142.457C981.993 214.461 809.517 164.387 723.149 198.216C636.782 232.045 619.485 393.771 438.86 468.612C258.236 543.452 124.628 413.671 8.75264 484.23Z" fill="#00ADEE"/>
<path opacity="0.4" d="M70.7526 639.705C-21.9478 696.153 -43.4237 769.32 -42.5741 798.847L40.6 824.634C48.7955 804.896 80.1831 756.136 140.169 719C215.151 672.579 408.411 783.471 556.329 699.057C704.247 614.643 711.755 491.795 830.609 440.851C949.464 389.907 1100.8 451.551 1172.4 406.913C1229.68 371.203 1289.16 281.122 1311.75 240.546L1189.23 166.313C1188.17 186.184 1171.83 240.329 1115.02 297.932C1043.99 369.936 871.517 319.862 785.149 353.691C698.782 387.52 681.485 549.246 500.86 624.087C320.236 698.927 186.628 569.146 70.7526 639.705Z" fill="#00ADEE"/>
<path d="M863.5 631.5C858.401 597.163 892 585.5 950.5 563.5C978 553.158 1004 528.5 1028.5 547C1048.15 561.837 1020.5 631.5 983.5 652.5C946.5 673.5 871 682 863.5 631.5Z" fill="#23BBE8"/>
<path opacity="0.4" d="M-66.2474 366.705C-158.948 423.153 -180.424 496.32 -179.574 525.847L-96.4 551.634C-88.2045 531.896 -56.8169 483.136 3.16902 446C78.1514 399.579 271.411 510.471 419.329 426.057C567.247 341.643 574.755 218.795 693.609 167.851C812.464 116.907 963.798 178.551 1035.4 133.913C1092.68 98.2026 1152.16 8.12239 1174.75 -32.4539L1052.23 -106.687C1051.17 -86.8155 1034.83 -32.6712 978.015 24.9321C906.993 96.9362 734.517 46.8621 648.149 80.6908C561.782 114.52 544.485 276.246 363.86 351.087C183.236 425.927 49.6282 296.146 -66.2474 366.705Z" fill="#00ADEE"/>
<path d="M1016.5 500C1014.92 492.094 1020.5 484 1031.5 480C1041.5 477.5 1045.5 481.5 1047 485C1048.5 488.5 1049.5 497 1042.5 504.5C1035.5 512 1018.5 510 1016.5 500Z" fill="#23BBE8"/>
<path opacity="0.4" d="M-199.247 237.705C-291.948 294.153 -313.424 367.32 -312.574 396.847L-229.4 422.634C-221.204 402.896 -189.817 354.136 -129.831 317C-54.8486 270.579 138.411 381.471 286.329 297.057C434.247 212.643 441.755 89.7951 560.609 38.8509C679.464 -12.0934 830.798 49.5512 902.397 4.91312C959.675 -30.7974 1019.16 -120.878 1041.75 -161.454L919.231 -235.687C918.166 -215.816 901.833 -161.671 845.015 -104.068C773.993 -32.0638 601.517 -82.1379 515.149 -48.3092C428.782 -14.4804 411.485 147.246 230.86 222.087C50.2357 296.927 -83.3718 167.146 -199.247 237.705Z" fill="#00ADEE"/>
</g>
</svg>
