<svg width="128" height="55" viewBox="0 0 128 55" fill="none" xmlns="http://www.w3.org/2000/svg">
<rect x="2" y="3" width="126" height="52" rx="26" fill="#483ECC"/>
<rect width="126" height="52" rx="26" fill="#4DC591"/>
<path d="M27.494 20.4H30.41V30.624H36.728V33H27.494V20.4ZM47.575 28.194C47.575 28.23 47.557 28.482 47.521 28.95H40.195C40.327 29.55 40.639 30.024 41.131 30.372C41.623 30.72 42.235 30.894 42.967 30.894C43.471 30.894 43.915 30.822 44.299 30.678C44.695 30.522 45.061 30.282 45.397 29.958L46.891 31.578C45.979 32.622 44.647 33.144 42.895 33.144C41.803 33.144 40.837 32.934 39.997 32.514C39.157 32.082 38.509 31.488 38.053 30.732C37.597 29.976 37.369 29.118 37.369 28.158C37.369 27.21 37.591 26.358 38.035 25.602C38.491 24.834 39.109 24.24 39.889 23.82C40.681 23.388 41.563 23.172 42.535 23.172C43.483 23.172 44.341 23.376 45.109 23.784C45.877 24.192 46.477 24.78 46.909 25.548C47.353 26.304 47.575 27.186 47.575 28.194ZM42.553 25.296C41.917 25.296 41.383 25.476 40.951 25.836C40.519 26.196 40.255 26.688 40.159 27.312H44.929C44.833 26.7 44.569 26.214 44.137 25.854C43.705 25.482 43.177 25.296 42.553 25.296ZM55.6904 32.532C55.4144 32.736 55.0724 32.892 54.6644 33C54.2684 33.096 53.8484 33.144 53.4044 33.144C52.2524 33.144 51.3584 32.85 50.7224 32.262C50.0984 31.674 49.7864 30.81 49.7864 29.67V25.692H48.2924V23.532H49.7864V21.174H52.5944V23.532H55.0064V25.692H52.5944V29.634C52.5944 30.042 52.6964 30.36 52.9004 30.588C53.1164 30.804 53.4164 30.912 53.8004 30.912C54.2444 30.912 54.6224 30.792 54.9344 30.552L55.6904 32.532ZM58.3467 19.5C58.8507 19.5 59.2647 19.662 59.5887 19.986C59.9127 20.298 60.0747 20.712 60.0747 21.228C60.0747 21.468 60.0447 21.708 59.9847 21.948C59.9247 22.188 59.7987 22.548 59.6067 23.028L58.5627 25.62H56.7807L57.5547 22.776C57.2547 22.644 57.0207 22.446 56.8527 22.182C56.6847 21.918 56.6007 21.6 56.6007 21.228C56.6007 20.712 56.7627 20.298 57.0867 19.986C57.4227 19.662 57.8427 19.5 58.3467 19.5ZM64.9192 33.144C64.1152 33.144 63.3292 33.048 62.5612 32.856C61.7932 32.652 61.1812 32.4 60.7252 32.1L61.6612 30.084C62.0932 30.36 62.6152 30.588 63.2272 30.768C63.8392 30.936 64.4392 31.02 65.0272 31.02C66.2152 31.02 66.8092 30.726 66.8092 30.138C66.8092 29.862 66.6472 29.664 66.3232 29.544C65.9992 29.424 65.5012 29.322 64.8292 29.238C64.0372 29.118 63.3832 28.98 62.8672 28.824C62.3512 28.668 61.9012 28.392 61.5172 27.996C61.1452 27.6 60.9592 27.036 60.9592 26.304C60.9592 25.692 61.1332 25.152 61.4812 24.684C61.8412 24.204 62.3572 23.832 63.0292 23.568C63.7132 23.304 64.5172 23.172 65.4412 23.172C66.1252 23.172 66.8032 23.25 67.4752 23.406C68.1592 23.55 68.7232 23.754 69.1672 24.018L68.2312 26.016C67.3792 25.536 66.4492 25.296 65.4412 25.296C64.8412 25.296 64.3912 25.38 64.0912 25.548C63.7912 25.716 63.6412 25.932 63.6412 26.196C63.6412 26.496 63.8032 26.706 64.1272 26.826C64.4512 26.946 64.9672 27.06 65.6752 27.168C66.4672 27.3 67.1152 27.444 67.6192 27.6C68.1232 27.744 68.5612 28.014 68.9332 28.41C69.3052 28.806 69.4912 29.358 69.4912 30.066C69.4912 30.666 69.3112 31.2 68.9512 31.668C68.5912 32.136 68.0632 32.502 67.3672 32.766C66.6832 33.018 65.8672 33.144 64.9192 33.144ZM85.0334 26.502H87.6974V31.614C87.0134 32.13 86.2214 32.526 85.3214 32.802C84.4214 33.078 83.5154 33.216 82.6034 33.216C81.2954 33.216 80.1194 32.94 79.0754 32.388C78.0314 31.824 77.2094 31.05 76.6094 30.066C76.0214 29.07 75.7274 27.948 75.7274 26.7C75.7274 25.452 76.0214 24.336 76.6094 23.352C77.2094 22.356 78.0374 21.582 79.0934 21.03C80.1494 20.466 81.3374 20.184 82.6574 20.184C83.7614 20.184 84.7634 20.37 85.6634 20.742C86.5634 21.114 87.3194 21.654 87.9314 22.362L86.0594 24.09C85.1594 23.142 84.0734 22.668 82.8014 22.668C81.9974 22.668 81.2834 22.836 80.6594 23.172C80.0354 23.508 79.5494 23.982 79.2014 24.594C78.8534 25.206 78.6794 25.908 78.6794 26.7C78.6794 27.48 78.8534 28.176 79.2014 28.788C79.5494 29.4 80.0294 29.88 80.6414 30.228C81.2654 30.564 81.9734 30.732 82.7654 30.732C83.6054 30.732 84.3614 30.552 85.0334 30.192V26.502ZM94.8161 33.144C93.7961 33.144 92.8781 32.934 92.0621 32.514C91.2581 32.082 90.6281 31.488 90.1721 30.732C89.7161 29.976 89.4881 29.118 89.4881 28.158C89.4881 27.198 89.7161 26.34 90.1721 25.584C90.6281 24.828 91.2581 24.24 92.0621 23.82C92.8781 23.388 93.7961 23.172 94.8161 23.172C95.8361 23.172 96.7481 23.388 97.5521 23.82C98.3561 24.24 98.9861 24.828 99.4421 25.584C99.8981 26.34 100.126 27.198 100.126 28.158C100.126 29.118 99.8981 29.976 99.4421 30.732C98.9861 31.488 98.3561 32.082 97.5521 32.514C96.7481 32.934 95.8361 33.144 94.8161 33.144ZM94.8161 30.84C95.5361 30.84 96.1241 30.6 96.5801 30.12C97.0481 29.628 97.2821 28.974 97.2821 28.158C97.2821 27.342 97.0481 26.694 96.5801 26.214C96.1241 25.722 95.5361 25.476 94.8161 25.476C94.0961 25.476 93.5021 25.722 93.0341 26.214C92.5661 26.694 92.3321 27.342 92.3321 28.158C92.3321 28.974 92.5661 29.628 93.0341 30.12C93.5021 30.6 94.0961 30.84 94.8161 30.84Z" fill="white"/>
</svg>
