<svg width="199" height="145" viewBox="0 0 199 145" fill="none" xmlns="http://www.w3.org/2000/svg">
<path d="M84.355 122.025C113.104 129.37 142.16 112.819 149.253 85.057C156.345 57.2951 138.789 28.8355 110.04 21.4906C81.2903 14.1457 52.2347 30.6969 45.1421 58.4588C38.0495 86.2206 55.6057 114.68 84.355 122.025Z" fill="#F98373"/>
<path d="M84.3555 122.025C113.105 129.37 142.018 113.376 148.935 86.3005C155.853 59.2253 138.154 31.3223 109.405 23.9774C80.6555 16.6326 51.7421 32.6271 44.8249 59.7023C37.9078 86.7775 55.6062 114.681 84.3555 122.025Z" fill="#6351E5"/>
<path d="M142.39 119.023C141.974 118.917 141.573 118.753 141.211 118.518C139.297 117.337 138.72 114.887 139.907 113.05C142.965 108.35 144.58 102.772 144.556 96.9184C144.518 88.0654 140.781 79.8976 134.311 74.4956C132.59 73.0573 132.364 70.5545 133.818 68.9089C135.273 67.2632 137.85 67.0862 139.572 68.5245C147.887 75.4575 152.665 85.8271 152.72 97.0074C152.764 104.354 150.713 111.389 146.828 117.345C145.883 118.815 144.054 119.448 142.39 119.023Z" fill="#6351E5"/>
<path d="M142.955 47.6877C146.847 57.8104 147.754 69.0451 144.919 80.1391C137.741 108.238 109.128 125.501 79.5034 120.541C81.0935 121.09 82.6982 121.581 84.362 122.006C113.103 129.349 142.057 113.232 149.015 85.9943C152.446 72.5667 149.874 58.9301 142.955 47.6877Z" fill="#483ECC"/>
<path d="M34.7527 91.524C33.0889 91.0989 31.8028 89.6904 31.6636 87.9229C31.1115 80.8336 32.7066 73.6816 36.2485 67.2511C41.655 57.4867 50.8463 50.6656 61.448 48.5654C63.6484 48.1291 65.825 49.5206 66.3118 51.6622C66.7986 53.8038 65.4001 55.8916 63.1996 56.3279C54.9319 57.9649 47.735 63.3393 43.4551 71.0891C40.6264 76.2144 39.3482 81.8783 39.7966 87.4741C39.9569 89.6545 38.2757 91.5275 36.0297 91.6465C35.6042 91.66 35.1687 91.6303 34.7527 91.524Z" fill="#6351E5"/>
<path d="M35.754 94.7947C38.3795 95.4655 41.033 93.9539 41.6807 91.4186C42.3284 88.8833 40.7251 86.2842 38.0996 85.6135C35.4741 84.9427 32.8206 86.4542 32.1729 88.9895C31.5252 91.5249 33.1285 94.1239 35.754 94.7947Z" fill="#483ECC"/>
<path d="M108.024 20.9556C108.024 20.9556 99.4463 50.8971 128.663 58.3614C128.683 58.3665 141.48 29.5029 108.024 20.9556Z" fill="#F98373"/>
<path d="M150.35 80.02L148.938 85.5479C154.816 88.8021 157.977 91.7084 157.44 93.8125C155.954 99.6272 127.061 97.258 92.9118 88.5336C58.7629 79.8092 32.2735 68.0292 33.7591 62.2144C34.3064 60.0721 38.0932 59.0427 44.9955 59.0334L46.9027 53.5505C26.4847 51.1256 12.7271 51.9509 11.5543 56.5416C9.53612 64.4412 45.5391 80.4449 91.9491 92.3017C138.359 104.159 177.631 107.366 179.645 99.4853C180.813 94.9138 169.27 87.6453 150.35 80.02Z" fill="#22BBFF"/>
<path d="M150.35 80.02L149.969 81.5119C165.274 88.0098 174.417 94.095 173.415 98.0161C171.549 105.323 135.192 102.351 92.1886 91.3645C49.1855 80.378 15.8582 65.547 17.7249 58.2403C18.7316 54.3 29.6584 53.322 46.4027 55.0121L46.9027 53.5505C26.4847 51.1256 12.7271 51.9509 11.5543 56.5416C9.53612 64.4412 45.5391 80.4449 91.9491 92.3017C138.359 104.159 177.631 107.366 179.645 99.4853C180.813 94.9138 169.27 87.6453 150.35 80.02Z" fill="#00A4DD"/>
<path d="M126.66 92.3872L112.636 88.8043C103.584 86.4917 98.0529 77.4987 100.281 68.7765L105.549 48.157C105.984 46.4546 107.762 45.4418 109.525 45.8922L142.921 54.4243C145.972 55.2036 147.837 58.2271 147.084 61.1728L141.23 84.0876C139.642 90.3041 133.117 94.0369 126.66 92.3872ZM109.017 47.7999C108.363 47.6329 107.676 48.0077 107.51 48.658L102.242 69.2775C100.278 76.9668 105.162 84.8572 113.105 86.8865L127.129 90.4694C132.477 91.8357 137.91 88.741 139.229 83.5765L145.084 60.6617C145.567 58.768 144.374 56.833 142.413 56.332L109.017 47.7999Z" fill="#53B4DB"/>
<path d="M103.92 58.6625L97.3037 56.9722L97.0103 58.1206L103.626 59.8108L103.92 58.6625Z" fill="#53B4DB"/>
<path d="M150.782 74.69L143.86 68.5816L144.645 64.6863L150.816 71.2551L150.782 74.69Z" fill="#53B4DB"/>
<path d="M48.3947 49.4483L57.3824 47.058L58.6507 42.9196L50.185 46.075L48.3947 49.4483Z" fill="#53B4DB"/>
<g opacity="0.3">
<path opacity="0.3" d="M68.0171 87.8582C76.2218 89.9544 84.514 85.2309 86.5381 77.308C88.5623 69.3851 83.5519 61.263 75.3472 59.1669C67.1425 57.0707 58.8503 61.7942 56.8262 69.7171C54.802 77.64 59.8124 85.7621 68.0171 87.8582Z" fill="#F9B7C5"/>
</g>
<g opacity="0.3">
<path opacity="0.3" d="M114.785 99.8064C122.989 101.903 131.282 97.179 133.306 89.2561C135.33 81.3332 130.319 73.2112 122.115 71.115C113.91 69.0189 105.618 73.7424 103.594 81.6653C101.57 89.5882 106.58 97.7102 114.785 99.8064Z" fill="#F9B7C5"/>
</g>
<path d="M93.7741 82.5999C90.5058 81.765 88.6666 79.1352 88.6368 79.0868C88.4528 78.8157 88.5259 78.4472 88.8024 78.2733C89.0789 78.0995 89.4602 78.1765 89.6441 78.4476C89.7982 78.6704 93.2576 83.5479 99.1766 80.8626C99.4879 80.718 99.8544 80.8524 99.989 81.1517C100.124 81.4509 100.011 81.8093 99.7045 81.9348C97.412 82.9792 95.4181 83.02 93.7741 82.5999Z" fill="black"/>
<path d="M82.3882 56.2185C82.3486 56.2084 82.3337 56.1842 82.3237 56.1409C82.0584 55.1969 82.9122 54.4981 83.4405 54.1645C83.4899 54.1363 83.5493 54.1515 83.5792 54.1999C83.609 54.2483 83.5944 54.3056 83.545 54.3338C83.066 54.6393 82.2714 55.2717 82.5215 56.1099C82.5315 56.1532 82.5169 56.2106 82.4477 56.2337C82.4278 56.2286 82.408 56.2236 82.3882 56.2185Z" fill="black"/>
<path d="M81.6184 56.2653C81.5986 56.2603 81.5639 56.231 81.549 56.2068C81.2305 55.6365 81.5288 54.5512 81.9826 54.0966C82.0122 54.0634 82.0765 54.0595 82.131 54.0938C82.1657 54.1231 82.1709 54.1855 82.1364 54.2378C81.7418 54.626 81.463 55.6347 81.7416 56.1134C81.7715 56.1618 81.7568 56.2192 81.7074 56.2473C81.6778 56.2805 81.6382 56.2704 81.6184 56.2653Z" fill="black"/>
<path d="M83.2016 56.6699C83.162 56.6598 83.1272 56.6305 83.1172 56.5872C82.9865 55.9425 83.6267 55.0058 84.1849 54.7205C84.2343 54.6924 84.2937 54.7075 84.3236 54.7559C84.3534 54.8043 84.3388 54.8617 84.2894 54.8898C83.7806 55.147 83.2242 56.0032 83.315 56.5562C83.3202 56.6187 83.2906 56.6519 83.2214 56.6749L83.2016 56.6699Z" fill="black"/>
<path d="M81.9797 58.1516C82.822 58.3668 83.6799 57.8562 83.8958 57.0111C84.1117 56.166 83.6039 55.3064 82.7615 55.0912C81.9192 54.876 81.0613 55.3866 80.8454 56.2317C80.6295 57.0769 81.1373 57.9364 81.9797 58.1516Z" fill="#050505"/>
<path d="M119.074 65.5906C119.034 65.5805 119.019 65.5563 119.009 65.513C118.744 64.569 119.598 63.8702 120.126 63.5366C120.175 63.5084 120.235 63.5236 120.265 63.572C120.295 63.6204 120.28 63.6778 120.231 63.7059C119.752 64.0114 118.957 64.6438 119.207 65.482C119.217 65.5253 119.202 65.5827 119.133 65.6058C119.094 65.5957 119.094 65.5957 119.074 65.5906Z" fill="black"/>
<path d="M118.304 65.6374C118.284 65.6324 118.249 65.6031 118.235 65.579C117.916 65.0086 118.214 63.9234 118.668 63.4688C118.698 63.4356 118.762 63.4316 118.817 63.4659C118.851 63.4952 118.856 63.5576 118.822 63.6099C118.427 63.9982 118.149 65.0068 118.427 65.4855C118.457 65.5339 118.442 65.5913 118.393 65.6194C118.344 65.6476 118.324 65.6425 118.304 65.6374Z" fill="black"/>
<path d="M119.866 66.0368C119.827 66.0267 119.792 65.9975 119.782 65.9542C119.671 65.3145 120.291 64.3727 120.85 64.0875C120.899 64.0593 120.958 64.0745 120.988 64.1229C121.018 64.1713 121.003 64.2286 120.954 64.2568C120.445 64.5139 119.889 65.3702 119.98 65.9232C119.985 65.9856 119.955 66.0188 119.886 66.0419C119.906 66.047 119.886 66.0419 119.866 66.0368Z" fill="black"/>
<path d="M118.665 67.5237C119.508 67.7389 120.365 67.2283 120.581 66.3832C120.797 65.5381 120.289 64.6785 119.447 64.4633C118.605 64.2481 117.747 64.7588 117.531 65.6039C117.315 66.449 117.823 67.3085 118.665 67.5237Z" fill="#050505"/>
<path d="M75.1584 79.2297L61.1146 75.6418C54.6968 74.0022 50.7576 67.6165 52.3409 61.4192L58.205 38.4661C58.9575 35.5204 62.0444 33.7621 65.0948 34.5414L98.5108 43.0785C100.274 43.5289 101.348 45.2704 100.913 46.9728L95.6501 67.5732C93.4169 76.3145 84.2305 81.5475 75.1584 79.2297ZM64.6061 36.4541C62.6451 35.9531 60.6695 37.0785 60.1858 38.9721L54.3217 61.9252C53.0072 67.0706 56.2749 72.3678 61.6032 73.7291L75.6471 77.317C83.6099 79.3513 91.7048 74.7565 93.6742 67.048L98.9323 46.4667C99.0936 45.8355 98.6956 45.1633 98.0221 44.9913L64.6061 36.4541Z" fill="#53B4DB"/>
<g opacity="0.1">
<path opacity="0.1" d="M114.406 88.2376L128.43 91.8204C134.333 93.3285 140.309 89.9242 141.765 84.2242L147.619 61.3094C148.235 58.8993 146.718 56.413 144.202 55.7703L110.806 47.2383C109.598 46.9296 108.368 47.6138 108.065 48.7997L102.797 69.4192C100.701 77.6249 105.908 86.0666 114.406 88.2376Z" fill="#F0F5F7"/>
</g>
<g opacity="0.1">
<path opacity="0.1" d="M76.9487 78.6682L62.9048 75.0803C57.0219 73.5773 53.4259 67.748 54.8772 62.0671L60.7413 39.114C61.357 36.7039 63.8808 35.25 66.3964 35.8926L99.8124 44.4298C101.021 44.7385 101.772 45.9287 101.469 47.1147L96.2056 67.715C94.0845 75.9348 85.4661 80.8442 76.9487 78.6682Z" fill="#F0F5F7"/>
</g>
<path d="M139.963 121.418C142.588 122.089 145.242 120.578 145.89 118.042C146.537 115.507 144.934 112.908 142.309 112.237C139.683 111.566 137.03 113.078 136.382 115.613C135.734 118.148 137.337 120.748 139.963 121.418Z" fill="#483ECC"/>
<path d="M109.566 30.8649L115.426 32.7082L111.223 36.7693" fill="#FFD425"/>
<path d="M121.337 34.6869L115.478 32.8435L119.68 28.7825" fill="#FFD425"/>
<path d="M175.441 70.9316L173.383 69.5412L139.216 117.753L141.274 119.143L175.441 70.9316Z" fill="#F98373"/>
<path d="M182.105 60.5433L181.696 69.0784C181.668 69.5195 181.877 69.9397 182.249 70.2181L189.277 75.498C190.18 76.1769 189.908 77.5743 188.805 77.8428L180.306 79.9709C179.876 80.0851 179.521 80.4019 179.374 80.8126L176.475 88.8541C176.103 89.9 174.653 90.0391 174.027 89.1048L169.165 81.872C168.921 81.5041 168.495 81.273 168.035 81.2573L159.211 80.9389C158.063 80.8901 157.441 79.6103 158.165 78.7563L163.671 72.1551C163.947 71.8181 164.045 71.3539 163.92 70.9349L161.36 62.701C161.02 61.6361 162.086 60.6858 163.166 61.084L171.434 64.2355C171.855 64.4042 172.335 64.3434 172.715 64.0942L179.948 59.32C180.862 58.7179 182.155 59.4356 182.105 60.5433Z" fill="#DD5F52"/>
<path d="M181.079 59.1812L178.058 58.3686L178.461 62.3228L181.079 59.1812Z" fill="#DD5F52"/>
<path d="M174.78 89.7036L171.689 88.6694L173.04 85.7749L174.78 89.7036Z" fill="#DD5F52"/>
<path d="M158.903 80.9008L155.852 79.9584L159.806 80.0925L158.903 80.9008Z" fill="#DD5F52"/>
<path d="M179.227 59.8286L178.839 68.2057C178.825 68.671 179.03 69.1103 179.421 69.3938L186.306 74.5757C187.263 75.289 186.976 76.7438 185.824 77.0404L177.483 79.1274C177.033 79.2366 176.653 79.5674 176.501 79.9972L173.667 87.8717C173.279 88.9749 171.746 89.1129 171.085 88.1494L166.307 81.0809C166.049 80.6888 165.602 80.4526 165.122 80.4318L156.467 80.1156C155.275 80.0758 154.612 78.7044 155.367 77.8171L160.774 71.3538C161.075 71.0027 161.177 70.5195 161.037 70.0762L158.522 61.9965C158.177 60.8692 159.297 59.8716 160.412 60.299L168.507 63.3859C168.948 63.5597 169.447 63.5039 169.852 63.2406L176.957 58.5558C177.94 57.9307 179.293 58.6635 179.227 59.8286Z" fill="#F98373"/>
<path d="M163.04 61.0711L160.312 60.272L163.328 61.4303L163.04 61.0711Z" fill="#DD5F52"/>
<path d="M141.404 121.562C144.095 121.435 146.142 119.207 145.965 116.595C145.788 113.982 143.909 117.373 141.218 117.501C138.526 117.628 136.003 114.457 136.179 117.069C136.356 119.682 138.713 121.69 141.404 121.562Z" fill="#483ECC"/>
<path d="M182.655 55.4072C182.596 55.392 182.521 55.3526 182.467 55.3183C182.179 55.1226 182.124 54.762 182.301 54.4812L185.562 49.8943C185.759 49.6186 186.13 49.5708 186.422 49.7474C186.71 49.9431 186.765 50.3037 186.588 50.5844L183.327 55.1714C183.145 55.3897 182.893 55.4679 182.655 55.4072Z" fill="#DD5F52"/>
<path d="M187.64 59.2683C187.422 59.2126 187.233 59.0422 187.188 58.8065C187.123 58.4841 187.329 58.1702 187.641 58.1071L190.469 57.5257C190.801 57.4677 191.128 57.6735 191.198 57.9768C191.263 58.2991 191.057 58.613 190.745 58.6761L187.917 59.2575C187.823 59.2947 187.719 59.2885 187.64 59.2683Z" fill="#DD5F52"/>
<path d="M176.242 54.4201C176.024 54.3644 175.855 54.199 175.805 53.9824L175.088 51.2524C175.003 50.925 175.21 50.6111 175.527 50.5289C175.863 50.4518 176.19 50.6577 176.28 50.9659L176.996 53.6959C177.081 54.0233 176.875 54.3373 176.558 54.4195C176.445 54.4515 176.341 54.4454 176.242 54.4201Z" fill="#DD5F52"/>
</svg>
