<svg width="225" height="52" viewBox="0 0 225 52" fill="none" xmlns="http://www.w3.org/2000/svg">
<rect width="225" height="52" rx="26" fill="#4DC591"/>
<mask id="mask0" mask-type="alpha" maskUnits="userSpaceOnUse" x="0" y="0" width="225" height="52">
<rect width="225" height="52" rx="26" fill="#58DCA3"/>
</mask>
<g mask="url(#mask0)">
<g opacity="0.2">
<rect x="29" y="53.6888" width="102.065" height="13.1936" transform="rotate(-37.8943 29 53.6888)" fill="#58DCA3"/>
<rect x="65" y="54.0626" width="102.673" height="13.1936" transform="rotate(-37.8943 65 54.0626)" fill="#58DCA3"/>
<rect x="102" y="54.0626" width="102.673" height="13.1936" transform="rotate(-37.8943 102 54.0626)" fill="#58DCA3"/>
<rect x="139" y="54.0626" width="102.673" height="13.1936" transform="rotate(-37.8943 139 54.0626)" fill="#58DCA3"/>
<rect x="176" y="54.0626" width="102.673" height="13.1936" transform="rotate(-37.8943 176 54.0626)" fill="#58DCA3"/>
<rect x="-4" y="51.3944" width="98.329" height="13.1936" transform="rotate(-37.8943 -4 51.3944)" fill="#58DCA3"/>
<rect x="-24.4238" y="41.2289" width="81.7783" height="13.1936" transform="rotate(-37.8943 -24.4238 41.2289)" fill="#58DCA3"/>
</g>
</g>
<path d="M24.976 32.16C24.112 32.16 23.2747 32.0373 22.464 31.792C21.664 31.5467 21.0293 31.2213 20.56 30.816L21.28 29.2C21.7387 29.5627 22.2987 29.8613 22.96 30.096C23.632 30.32 24.304 30.432 24.976 30.432C25.808 30.432 26.4267 30.2987 26.832 30.032C27.248 29.7653 27.456 29.4133 27.456 28.976C27.456 28.656 27.3387 28.3947 27.104 28.192C26.88 27.9787 26.592 27.8133 26.24 27.696C25.888 27.5787 25.408 27.4453 24.8 27.296C23.9467 27.0933 23.2533 26.8907 22.72 26.688C22.1973 26.4853 21.744 26.1707 21.36 25.744C20.9867 25.3067 20.8 24.72 20.8 23.984C20.8 23.3653 20.9653 22.8053 21.296 22.304C21.6373 21.792 22.144 21.3867 22.816 21.088C23.4987 20.7893 24.3307 20.64 25.312 20.64C25.9947 20.64 26.6667 20.7253 27.328 20.896C27.9893 21.0667 28.56 21.312 29.04 21.632L28.384 23.248C27.8933 22.96 27.3813 22.7413 26.848 22.592C26.3147 22.4427 25.7973 22.368 25.296 22.368C24.4747 22.368 23.8613 22.5067 23.456 22.784C23.0613 23.0613 22.864 23.4293 22.864 23.888C22.864 24.208 22.976 24.4693 23.2 24.672C23.4347 24.8747 23.728 25.0347 24.08 25.152C24.432 25.2693 24.912 25.4027 25.52 25.552C26.352 25.744 27.0347 25.9467 27.568 26.16C28.1013 26.3627 28.5547 26.6773 28.928 27.104C29.312 27.5307 29.504 28.1067 29.504 28.832C29.504 29.4507 29.3333 30.0107 28.992 30.512C28.6613 31.0133 28.1547 31.4133 27.472 31.712C26.7893 32.0107 25.9573 32.16 24.976 32.16ZM36.1105 23.36C36.9425 23.36 37.6838 23.5413 38.3345 23.904C38.9958 24.2667 39.5132 24.7787 39.8865 25.44C40.2598 26.1013 40.4465 26.864 40.4465 27.728C40.4465 28.592 40.2598 29.36 39.8865 30.032C39.5132 30.6933 38.9958 31.2053 38.3345 31.568C37.6838 31.9307 36.9425 32.112 36.1105 32.112C34.9585 32.112 34.0465 31.728 33.3745 30.96V35.104H31.3745V23.456H33.2785V24.576C33.6092 24.1707 34.0145 23.8667 34.4945 23.664C34.9852 23.4613 35.5238 23.36 36.1105 23.36ZM35.8865 30.4C36.6225 30.4 37.2252 30.1547 37.6945 29.664C38.1745 29.1733 38.4145 28.528 38.4145 27.728C38.4145 26.928 38.1745 26.2827 37.6945 25.792C37.2252 25.3013 36.6225 25.056 35.8865 25.056C35.4065 25.056 34.9745 25.168 34.5905 25.392C34.2065 25.6053 33.9025 25.9147 33.6785 26.32C33.4545 26.7253 33.3425 27.1947 33.3425 27.728C33.3425 28.2613 33.4545 28.7307 33.6785 29.136C33.9025 29.5413 34.2065 29.856 34.5905 30.08C34.9745 30.2933 35.4065 30.4 35.8865 30.4ZM50.3753 27.776C50.3753 27.9147 50.3646 28.112 50.3433 28.368H43.6393C43.7566 28.9973 44.0606 29.4987 44.5513 29.872C45.0526 30.2347 45.6713 30.416 46.4073 30.416C47.3459 30.416 48.1193 30.1067 48.7273 29.488L49.7993 30.72C49.4153 31.1787 48.9299 31.5253 48.3433 31.76C47.7566 31.9947 47.0953 32.112 46.3593 32.112C45.4206 32.112 44.5939 31.9253 43.8793 31.552C43.1646 31.1787 42.6099 30.6613 42.2153 30C41.8313 29.328 41.6393 28.5707 41.6393 27.728C41.6393 26.896 41.8259 26.1493 42.1993 25.488C42.5833 24.816 43.1113 24.2933 43.7833 23.92C44.4553 23.5467 45.2126 23.36 46.0553 23.36C46.8873 23.36 47.6286 23.5467 48.2793 23.92C48.9406 24.2827 49.4526 24.8 49.8153 25.472C50.1886 26.1333 50.3753 26.9013 50.3753 27.776ZM46.0553 24.96C45.4153 24.96 44.8713 25.152 44.4233 25.536C43.9859 25.9093 43.7193 26.4107 43.6233 27.04H48.4713C48.3859 26.4213 48.1246 25.92 47.6873 25.536C47.2499 25.152 46.7059 24.96 46.0553 24.96ZM60.3284 27.776C60.3284 27.9147 60.3177 28.112 60.2964 28.368H53.5924C53.7097 28.9973 54.0137 29.4987 54.5044 29.872C55.0057 30.2347 55.6244 30.416 56.3604 30.416C57.299 30.416 58.0724 30.1067 58.6804 29.488L59.7524 30.72C59.3684 31.1787 58.883 31.5253 58.2964 31.76C57.7097 31.9947 57.0484 32.112 56.3124 32.112C55.3737 32.112 54.547 31.9253 53.8324 31.552C53.1177 31.1787 52.563 30.6613 52.1684 30C51.7844 29.328 51.5924 28.5707 51.5924 27.728C51.5924 26.896 51.779 26.1493 52.1524 25.488C52.5364 24.816 53.0644 24.2933 53.7364 23.92C54.4084 23.5467 55.1657 23.36 56.0084 23.36C56.8404 23.36 57.5817 23.5467 58.2324 23.92C58.8937 24.2827 59.4057 24.8 59.7684 25.472C60.1417 26.1333 60.3284 26.9013 60.3284 27.776ZM56.0084 24.96C55.3684 24.96 54.8244 25.152 54.3764 25.536C53.939 25.9093 53.6724 26.4107 53.5764 27.04H58.4244C58.339 26.4213 58.0777 25.92 57.6404 25.536C57.203 25.152 56.659 24.96 56.0084 24.96ZM70.6175 20.128V32H68.6975V30.896C68.3668 31.3013 67.9562 31.6053 67.4655 31.808C66.9855 32.0107 66.4522 32.112 65.8655 32.112C65.0442 32.112 64.3028 31.9307 63.6415 31.568C62.9908 31.2053 62.4788 30.6933 62.1055 30.032C61.7322 29.36 61.5455 28.592 61.5455 27.728C61.5455 26.864 61.7322 26.1013 62.1055 25.44C62.4788 24.7787 62.9908 24.2667 63.6415 23.904C64.3028 23.5413 65.0442 23.36 65.8655 23.36C66.4308 23.36 66.9482 23.456 67.4175 23.648C67.8868 23.84 68.2868 24.128 68.6175 24.512V20.128H70.6175ZM66.1055 30.4C66.5855 30.4 67.0175 30.2933 67.4015 30.08C67.7855 29.856 68.0895 29.5413 68.3135 29.136C68.5375 28.7307 68.6495 28.2613 68.6495 27.728C68.6495 27.1947 68.5375 26.7253 68.3135 26.32C68.0895 25.9147 67.7855 25.6053 67.4015 25.392C67.0175 25.168 66.5855 25.056 66.1055 25.056C65.6255 25.056 65.1935 25.168 64.8095 25.392C64.4255 25.6053 64.1215 25.9147 63.8975 26.32C63.6735 26.7253 63.5615 27.1947 63.5615 27.728C63.5615 28.2613 63.6735 28.7307 63.8975 29.136C64.1215 29.5413 64.4255 29.856 64.8095 30.08C65.1935 30.2933 65.6255 30.4 66.1055 30.4ZM88.1358 32L88.1198 24.576L84.4398 30.72H83.5118L79.8318 24.672V32H77.8478V20.8H79.5598L84.0078 28.224L88.3758 20.8H90.0878L90.1038 32H88.1358ZM96.201 23.36C97.4597 23.36 98.4197 23.664 99.081 24.272C99.753 24.8693 100.089 25.776 100.089 26.992V32H98.201V30.96C97.9557 31.3333 97.6037 31.6213 97.145 31.824C96.697 32.016 96.153 32.112 95.513 32.112C94.873 32.112 94.313 32.0053 93.833 31.792C93.353 31.568 92.9797 31.264 92.713 30.88C92.457 30.4853 92.329 30.0427 92.329 29.552C92.329 28.784 92.6117 28.1707 93.177 27.712C93.753 27.2427 94.6543 27.008 95.881 27.008H98.089V26.88C98.089 26.2827 97.9077 25.824 97.545 25.504C97.193 25.184 96.665 25.024 95.961 25.024C95.481 25.024 95.0063 25.0987 94.537 25.248C94.0783 25.3973 93.689 25.6053 93.369 25.872L92.585 24.416C93.033 24.0747 93.5717 23.8133 94.201 23.632C94.8303 23.4507 95.497 23.36 96.201 23.36ZM95.929 30.656C96.4303 30.656 96.873 30.544 97.257 30.32C97.6517 30.0853 97.929 29.7547 98.089 29.328V28.336H96.025C94.873 28.336 94.297 28.7147 94.297 29.472C94.297 29.8347 94.441 30.1227 94.729 30.336C95.017 30.5493 95.417 30.656 95.929 30.656ZM107.792 31.536C107.557 31.728 107.269 31.872 106.928 31.968C106.597 32.064 106.245 32.112 105.872 32.112C104.933 32.112 104.208 31.8667 103.696 31.376C103.184 30.8853 102.928 30.1707 102.928 29.232V25.12H101.52V23.52H102.928V21.568H104.928V23.52H107.216V25.12H104.928V29.184C104.928 29.6 105.029 29.92 105.232 30.144C105.434 30.3573 105.728 30.464 106.112 30.464C106.56 30.464 106.933 30.3467 107.232 30.112L107.792 31.536ZM114.285 23.36C115.362 23.36 116.226 23.6747 116.877 24.304C117.528 24.9333 117.853 25.8667 117.853 27.104V32H115.853V27.36C115.853 26.6133 115.677 26.0533 115.325 25.68C114.973 25.296 114.472 25.104 113.821 25.104C113.085 25.104 112.504 25.328 112.077 25.776C111.65 26.2133 111.437 26.848 111.437 27.68V32H109.437V20.128H111.437V24.448C111.768 24.096 112.173 23.8293 112.653 23.648C113.144 23.456 113.688 23.36 114.285 23.36ZM128.476 32.16C127.612 32.16 126.775 32.0373 125.964 31.792C125.164 31.5467 124.529 31.2213 124.06 30.816L124.78 29.2C125.239 29.5627 125.799 29.8613 126.46 30.096C127.132 30.32 127.804 30.432 128.476 30.432C129.308 30.432 129.927 30.2987 130.332 30.032C130.748 29.7653 130.956 29.4133 130.956 28.976C130.956 28.656 130.839 28.3947 130.604 28.192C130.38 27.9787 130.092 27.8133 129.74 27.696C129.388 27.5787 128.908 27.4453 128.3 27.296C127.447 27.0933 126.753 26.8907 126.22 26.688C125.697 26.4853 125.244 26.1707 124.86 25.744C124.487 25.3067 124.3 24.72 124.3 23.984C124.3 23.3653 124.465 22.8053 124.796 22.304C125.137 21.792 125.644 21.3867 126.316 21.088C126.999 20.7893 127.831 20.64 128.812 20.64C129.495 20.64 130.167 20.7253 130.828 20.896C131.489 21.0667 132.06 21.312 132.54 21.632L131.884 23.248C131.393 22.96 130.881 22.7413 130.348 22.592C129.815 22.4427 129.297 22.368 128.796 22.368C127.975 22.368 127.361 22.5067 126.956 22.784C126.561 23.0613 126.364 23.4293 126.364 23.888C126.364 24.208 126.476 24.4693 126.7 24.672C126.935 24.8747 127.228 25.0347 127.58 25.152C127.932 25.2693 128.412 25.4027 129.02 25.552C129.852 25.744 130.535 25.9467 131.068 26.16C131.601 26.3627 132.055 26.6773 132.428 27.104C132.812 27.5307 133.004 28.1067 133.004 28.832C133.004 29.4507 132.833 30.0107 132.492 30.512C132.161 31.0133 131.655 31.4133 130.972 31.712C130.289 32.0107 129.457 32.16 128.476 32.16ZM143.147 23.456V32H141.243V30.912C140.923 31.296 140.523 31.5947 140.043 31.808C139.563 32.0107 139.045 32.112 138.491 32.112C137.349 32.112 136.448 31.7973 135.787 31.168C135.136 30.528 134.811 29.584 134.811 28.336V23.456H136.811V28.064C136.811 28.832 136.981 29.408 137.323 29.792C137.675 30.1653 138.171 30.352 138.811 30.352C139.525 30.352 140.091 30.1333 140.507 29.696C140.933 29.248 141.147 28.608 141.147 27.776V23.456H143.147ZM156.549 23.36C157.626 23.36 158.48 23.6747 159.109 24.304C159.738 24.9227 160.053 25.856 160.053 27.104V32H158.053V27.36C158.053 26.6133 157.888 26.0533 157.557 25.68C157.226 25.296 156.752 25.104 156.133 25.104C155.461 25.104 154.922 25.328 154.517 25.776C154.112 26.2133 153.909 26.8427 153.909 27.664V32H151.909V27.36C151.909 26.6133 151.744 26.0533 151.413 25.68C151.082 25.296 150.608 25.104 149.989 25.104C149.306 25.104 148.762 25.3227 148.357 25.76C147.962 26.1973 147.765 26.832 147.765 27.664V32H145.765V23.456H147.669V24.544C147.989 24.16 148.389 23.8667 148.869 23.664C149.349 23.4613 149.882 23.36 150.469 23.36C151.109 23.36 151.674 23.4827 152.165 23.728C152.666 23.9627 153.061 24.3147 153.349 24.784C153.701 24.336 154.154 23.9893 154.709 23.744C155.264 23.488 155.877 23.36 156.549 23.36ZM173.393 23.36C174.47 23.36 175.324 23.6747 175.953 24.304C176.582 24.9227 176.897 25.856 176.897 27.104V32H174.897V27.36C174.897 26.6133 174.732 26.0533 174.401 25.68C174.07 25.296 173.596 25.104 172.977 25.104C172.305 25.104 171.766 25.328 171.361 25.776C170.956 26.2133 170.753 26.8427 170.753 27.664V32H168.753V27.36C168.753 26.6133 168.588 26.0533 168.257 25.68C167.926 25.296 167.452 25.104 166.833 25.104C166.15 25.104 165.606 25.3227 165.201 25.76C164.806 26.1973 164.609 26.832 164.609 27.664V32H162.609V23.456H164.513V24.544C164.833 24.16 165.233 23.8667 165.713 23.664C166.193 23.4613 166.726 23.36 167.313 23.36C167.953 23.36 168.518 23.4827 169.009 23.728C169.51 23.9627 169.905 24.3147 170.193 24.784C170.545 24.336 170.998 23.9893 171.553 23.744C172.108 23.488 172.721 23.36 173.393 23.36ZM182.717 23.36C183.975 23.36 184.935 23.664 185.597 24.272C186.269 24.8693 186.605 25.776 186.605 26.992V32H184.717V30.96C184.471 31.3333 184.119 31.6213 183.661 31.824C183.213 32.016 182.669 32.112 182.029 32.112C181.389 32.112 180.829 32.0053 180.349 31.792C179.869 31.568 179.495 31.264 179.229 30.88C178.973 30.4853 178.845 30.0427 178.845 29.552C178.845 28.784 179.127 28.1707 179.693 27.712C180.269 27.2427 181.17 27.008 182.397 27.008H184.605V26.88C184.605 26.2827 184.423 25.824 184.061 25.504C183.709 25.184 183.181 25.024 182.477 25.024C181.997 25.024 181.522 25.0987 181.053 25.248C180.594 25.3973 180.205 25.6053 179.885 25.872L179.101 24.416C179.549 24.0747 180.087 23.8133 180.717 23.632C181.346 23.4507 182.013 23.36 182.717 23.36ZM182.445 30.656C182.946 30.656 183.389 30.544 183.773 30.32C184.167 30.0853 184.445 29.7547 184.605 29.328V28.336H182.541C181.389 28.336 180.813 28.7147 180.813 29.472C180.813 29.8347 180.957 30.1227 181.245 30.336C181.533 30.5493 181.933 30.656 182.445 30.656ZM191.075 24.704C191.651 23.808 192.665 23.36 194.115 23.36V25.264C193.945 25.232 193.79 25.216 193.651 25.216C192.873 25.216 192.265 25.4453 191.827 25.904C191.39 26.352 191.171 27.0027 191.171 27.856V32H189.171V23.456H191.075V24.704ZM204.125 23.456L200.125 32.688C199.751 33.616 199.298 34.2667 198.765 34.64C198.231 35.024 197.586 35.216 196.829 35.216C196.402 35.216 195.981 35.1467 195.565 35.008C195.149 34.8693 194.807 34.6773 194.54 34.432L195.34 32.96C195.533 33.1413 195.757 33.2853 196.013 33.392C196.279 33.4987 196.546 33.552 196.812 33.552C197.165 33.552 197.453 33.4613 197.677 33.28C197.911 33.0987 198.125 32.7947 198.317 32.368L198.461 32.032L194.732 23.456H196.812L199.501 29.776L202.205 23.456H204.125Z" fill="white"/>
</svg>
