<svg width="151" height="147" viewBox="0 0 151 147" fill="none" xmlns="http://www.w3.org/2000/svg">
<path d="M147 15.2472C147 9.03554 141.965 4 135.753 4C129.541 4 124.506 9.03554 124.506 15.2472" stroke="#233584" stroke-width="7" stroke-linecap="round"/>
<path d="M26.4944 15.2472C26.4944 9.03554 21.4588 4 15.2472 4C9.03554 4 4 9.03554 4 15.2472" stroke="#233584" stroke-width="7" stroke-linecap="round"/>
<path d="M31.3145 77.0225C31.3145 65.9768 40.2688 57.0225 51.3145 57.0225H101.292C112.338 57.0225 121.292 65.9768 121.292 77.0225V102.011C121.292 126.858 101.15 147 76.3032 147C51.4566 147 31.3145 126.858 31.3145 102.011V77.0225Z" fill="#233584"/>
<mask id="mask0" mask-type="alpha" maskUnits="userSpaceOnUse" x="31" y="57" width="91" height="90">
<path d="M31.3145 77.0225C31.3145 65.9768 40.2688 57.0225 51.3145 57.0225H101.292C112.338 57.0225 121.292 65.9768 121.292 77.0225V102.011C121.292 126.858 101.15 147 76.3032 147C51.4566 147 31.3145 126.858 31.3145 102.011V77.0225Z" fill="#233584"/>
</mask>
<g mask="url(#mask0)">
<ellipse cx="77.1071" cy="137.36" rx="53.8258" ry="41.7753" fill="#FA6D6D"/>
</g>
</svg>
