<svg width="24" height="24" viewBox="0 0 24 24" fill="none" xmlns="http://www.w3.org/2000/svg">
<mask id="path-1-inside-1" fill="white">
<path fill-rule="evenodd" clip-rule="evenodd" d="M20.9547 13.4607C22.2648 13.8608 24 13.3698 24 12C24 5.37258 18.6274 0 12 0C5.37258 0 0 5.37258 0 12C0 18.6274 5.37258 24 12 24C13.3697 24 13.8607 22.2649 13.4606 20.9549C13.2911 20.3998 13.1999 19.8106 13.1999 19.2C13.1999 15.8863 15.8862 13.2 19.1999 13.2C19.8104 13.2 20.3997 13.2912 20.9547 13.4607Z"/>
</mask>
<path d="M12 1.2C17.9647 1.2 22.8 6.03532 22.8 12H25.2C25.2 4.70984 19.2902 -1.2 12 -1.2V1.2ZM1.2 12C1.2 6.03532 6.03532 1.2 12 1.2V-1.2C4.70984 -1.2 -1.2 4.70984 -1.2 12H1.2ZM12 22.8C6.03532 22.8 1.2 17.9647 1.2 12H-1.2C-1.2 19.2902 4.70984 25.2 12 25.2V22.8ZM14.6083 20.6044C14.4731 20.1617 14.3999 19.6905 14.3999 19.2H11.9999C11.9999 19.9307 12.1091 20.638 12.3129 21.3054L14.6083 20.6044ZM14.3999 19.2C14.3999 16.5491 16.5489 14.4 19.1999 14.4V12C15.2235 12 11.9999 15.2236 11.9999 19.2H14.3999ZM19.1999 14.4C19.6904 14.4 20.1615 14.4732 20.6042 14.6084L21.3052 12.313C20.6378 12.1092 19.9305 12 19.1999 12V14.4ZM12 25.2C13.3102 25.2 14.135 24.3284 14.505 23.4223C14.8618 22.5482 14.8822 21.5015 14.6083 20.6044L12.3129 21.3054C12.4391 21.7183 12.4141 22.1941 12.283 22.5151C12.2212 22.6664 12.155 22.738 12.1196 22.7659C12.0974 22.7834 12.0711 22.8 12 22.8V25.2ZM22.8 12C22.8 12.0711 22.7834 12.0974 22.7659 12.1196C22.738 12.155 22.6664 12.2213 22.5151 12.2831C22.194 12.4141 21.7182 12.4391 21.3052 12.313L20.6042 14.6084C21.5013 14.8823 22.5481 14.8619 23.4222 14.505C24.3284 14.1351 25.2 13.3102 25.2 12H22.8Z" fill="#233584" mask="url(#path-1-inside-1)"/>
<circle cx="11.9998" cy="4.79998" r="1.2" stroke="#233584"/>
<circle cx="5.9998" cy="7.2" r="1.2" stroke="#233584"/>
<circle cx="4.79985" cy="13.2" r="1.2" stroke="#233584"/>
<circle cx="17.9998" cy="7.2" r="1.2" stroke="#233584"/>
</svg>
