<svg width="21" height="13" viewBox="0 0 21 13" fill="none" xmlns="http://www.w3.org/2000/svg">
<path d="M9.17537 9.2H3.22338L1.99138 12H0.343375L5.41538 0.799999H6.99938L12.0874 12H10.4074L9.17537 9.2ZM8.61538 7.92L6.19938 2.432L3.78338 7.92H8.61538ZM16.6221 3.44C17.7955 3.44 18.6915 3.728 19.3101 4.304C19.9395 4.88 20.2541 5.73867 20.2541 6.88V12H18.7981V10.88C18.5421 11.2747 18.1741 11.5787 17.6941 11.792C17.2248 11.9947 16.6648 12.096 16.0141 12.096C15.0648 12.096 14.3021 11.8667 13.7261 11.408C13.1608 10.9493 12.8781 10.3467 12.8781 9.6C12.8781 8.85333 13.1501 8.256 13.6941 7.808C14.2381 7.34933 15.1021 7.12 16.2861 7.12H18.7181V6.816C18.7181 6.15467 18.5261 5.648 18.1421 5.296C17.7581 4.944 17.1928 4.768 16.4461 4.768C15.9448 4.768 15.4541 4.85333 14.9741 5.024C14.4941 5.184 14.0888 5.40267 13.7581 5.68L13.1181 4.528C13.5555 4.176 14.0781 3.90933 14.6861 3.728C15.2941 3.536 15.9395 3.44 16.6221 3.44ZM16.2701 10.912C16.8568 10.912 17.3635 10.784 17.7901 10.528C18.2168 10.2613 18.5261 9.888 18.7181 9.408V8.224H16.3501C15.0488 8.224 14.3981 8.66133 14.3981 9.536C14.3981 9.96267 14.5635 10.2987 14.8941 10.544C15.2248 10.7893 15.6835 10.912 16.2701 10.912Z" fill="#233584"/>
</svg>
