<svg width="61" height="61" viewBox="0 0 61 61" fill="none" xmlns="http://www.w3.org/2000/svg">
<path fill-rule="evenodd" clip-rule="evenodd" d="M37.6747 7.17647C37.6747 3.21302 34.4617 0 30.4982 0C26.5348 0 23.3218 3.21302 23.3218 7.17647V15.3229C23.3218 19.7412 19.7401 23.3229 15.3218 23.3229L7.17647 23.3229C3.21301 23.3229 0 26.5359 0 30.4994C0 34.4628 3.21301 37.6758 7.17647 37.6758H15.3218C19.7401 37.6758 23.3218 41.2576 23.3218 45.6758V53.8235C23.3218 57.787 26.5348 61 30.4982 61C34.4617 61 37.6747 57.787 37.6747 53.8235V45.6758C37.6747 41.2575 41.2564 37.6758 45.6747 37.6758H53.8235C57.787 37.6758 61 34.4628 61 30.4993C61 26.5359 57.787 23.3229 53.8235 23.3229L45.6747 23.3229C41.2564 23.3229 37.6747 19.7412 37.6747 15.3229V7.17647Z" fill="#7675EB"/>
</svg>
