<svg width="46" height="45" viewBox="0 0 46 45" fill="none" xmlns="http://www.w3.org/2000/svg">
<path d="M16.4996 15.7198L14.5433 16.1356L16.4996 15.7198L14.006 3.98816L22.9191 12.0135C23.8849 12.8832 25.3009 13.032 26.4264 12.3822L36.8133 6.38531L31.935 17.3421C31.4064 18.5294 31.7024 19.9221 32.6683 20.7918L41.5813 28.8171L29.6533 27.5634C28.3608 27.4276 27.1277 28.1395 26.5991 29.3268L21.7208 40.2836L19.2272 28.552L17.2709 28.9678L19.2272 28.552C18.957 27.2807 17.8989 26.328 16.6063 26.1922L4.67831 24.9385L15.0652 18.9416C16.1907 18.2918 16.7698 16.9911 16.4996 15.7198Z" stroke="#43BA80" stroke-width="4"/>
</svg>
