<svg width="36" height="36" viewBox="0 0 36 36" fill="none" xmlns="http://www.w3.org/2000/svg">
<path fill-rule="evenodd" clip-rule="evenodd" d="M26.8953 34.072C28.4574 35.6341 30.99 35.6341 32.5521 34.072L34.1674 32.4568C35.7295 30.8947 35.7295 28.362 34.1674 26.7999L28.0086 20.6411C26.4465 19.079 26.4465 16.5464 28.0086 14.9843L34.1678 8.82503C35.7299 7.26293 35.7299 4.73027 34.1678 3.16817L32.5526 1.55294C30.9905 -0.00915383 28.4578 -0.00915596 26.8957 1.55294L20.7365 7.7122C19.1744 9.27429 16.6417 9.27429 15.0796 7.71219L8.91784 1.55042C7.35575 -0.0116782 4.82309 -0.0116797 3.26099 1.55042L1.64576 3.16565C0.0836583 4.72775 0.0836596 7.26041 1.64576 8.82251L7.80753 14.9843C9.36963 16.5464 9.36963 19.079 7.80753 20.6411L1.64622 26.8025C0.08412 28.3646 0.0841212 30.8972 1.64622 32.4593L3.26145 34.0745C4.82355 35.6366 7.3562 35.6366 8.9183 34.0745L15.0796 27.9132C16.6417 26.3511 19.1744 26.3511 20.7365 27.9132L26.8953 34.072Z" fill="white"/>
</svg>
