<svg width="24" height="24" viewBox="0 0 24 24" fill="none" xmlns="http://www.w3.org/2000/svg">
<g id="Video icon">
<path id="Union" d="M18 13.9486L18.4583 13.4194L17.3 12.4163V13.9486H18ZM20.8453 16.4127L20.3871 16.9418L20.8453 16.4127ZM20.8453 7.5873L20.3871 7.05815V7.05815L20.8453 7.5873ZM18 10.0514H17.3V11.5837L18.4583 10.5806L18 10.0514ZM2.95 9.25C2.95 7.42746 4.42746 5.95 6.25 5.95V4.55C3.65426 4.55 1.55 6.65426 1.55 9.25H2.95ZM2.95 14V9.25H1.55V14H2.95ZM6.25 17.3C4.42746 17.3 2.95 15.8225 2.95 14H1.55C1.55 16.5957 3.65426 18.7 6.25 18.7V17.3ZM14 17.3H6.25V18.7H14V17.3ZM17.3 14C17.3 15.8225 15.8225 17.3 14 17.3V18.7C16.5957 18.7 18.7 16.5957 18.7 14H17.3ZM17.3 13.9486V14H18.7V13.9486H17.3ZM21.3036 15.8835L18.4583 13.4194L17.5417 14.4777L20.3871 16.9418L21.3036 15.8835ZM21.8 15.6568C21.8 15.9138 21.4979 16.0518 21.3036 15.8835L20.3871 16.9418C21.4881 17.8953 23.2 17.1132 23.2 15.6568H21.8ZM21.8 8.34323V15.6568H23.2V8.34323H21.8ZM21.3036 8.11645C21.4979 7.94819 21.8 8.0862 21.8 8.34323H23.2C23.2 6.88675 21.4881 6.10466 20.3871 7.05815L21.3036 8.11645ZM18.4583 10.5806L21.3036 8.11645L20.3871 7.05815L17.5417 9.52229L18.4583 10.5806ZM17.3 9.25V10.0514H18.7V9.25H17.3ZM14 5.95C15.8225 5.95 17.3 7.42746 17.3 9.25H18.7C18.7 6.65426 16.5957 4.55 14 4.55V5.95ZM6.25 5.95H14V4.55H6.25V5.95Z" fill="#F2F2F2"/>
<path id="Polygon 7" d="M9.7 10.6144L12.1 12L9.7 13.3856L9.7 10.6144Z" stroke="#F2F2F2" strokeWidth="1.4"/>
</g>
</svg>
