<svg width="20" height="20" viewBox="0 0 20 20" fill="none" xmlns="http://www.w3.org/2000/svg">
<g id="bx:support">
<path id="Vector" d="M10.0001 1.66675C5.40508 1.66675 1.66675 5.40508 1.66675 10.0001V13.4526C1.66675 14.3059 2.41425 15.0001 3.33341 15.0001H4.16675C4.38776 15.0001 4.59972 14.9123 4.756 14.756C4.91228 14.5997 5.00008 14.3878 5.00008 14.1667V9.88091C5.00008 9.6599 4.91228 9.44794 4.756 9.29166C4.59972 9.13538 4.38776 9.04758 4.16675 9.04758H3.41008C3.87341 5.82258 6.64841 3.33341 10.0001 3.33341C13.3517 3.33341 16.1267 5.82258 16.5901 9.04758H15.8334C15.6124 9.04758 15.4004 9.13538 15.2442 9.29166C15.0879 9.44794 15.0001 9.6599 15.0001 9.88091V15.0001C15.0001 15.9192 14.2526 16.6667 13.3334 16.6667H11.6667V15.8334H8.33341V18.3334H13.3334C15.1717 18.3334 16.6667 16.8384 16.6667 15.0001C17.5859 15.0001 18.3334 14.3059 18.3334 13.4526V10.0001C18.3334 5.40508 14.5951 1.66675 10.0001 1.66675Z" fill="#27AE60"/>
</g>
</svg>
