<svg width="20" height="20" viewBox="0 0 20 20" fill="none" xmlns="http://www.w3.org/2000/svg">
<g id="Property 1=on">
<path id="Vector" d="M10 0.833252C9.33696 0.833252 8.70107 1.09664 8.23223 1.56549C7.76339 2.03433 7.5 2.67021 7.5 3.33325V9.99992C7.5 10.663 7.76339 11.2988 8.23223 11.7677C8.70107 12.2365 9.33696 12.4999 10 12.4999C10.663 12.4999 11.2989 12.2365 11.7678 11.7677C12.2366 11.2988 12.5 10.663 12.5 9.99992V3.33325C12.5 2.67021 12.2366 2.03433 11.7678 1.56549C11.2989 1.09664 10.663 0.833252 10 0.833252Z" stroke="#F2F2F2" strokeWidth="1.4" strokeLinecap="round"/>
<path id="Vector_2" d="M15.8333 8.33325V9.99992C15.8333 11.547 15.2187 13.0307 14.1247 14.1247C13.0308 15.2187 11.5471 15.8333 9.99996 15.8333C8.45286 15.8333 6.96913 15.2187 5.87517 14.1247C4.78121 13.0307 4.16663 11.547 4.16663 9.99992V8.33325" stroke="#F2F2F2" strokeWidth="1.4" strokeLinecap="round"/>
<path id="Vector_3" d="M10 15.8333V19.1666" stroke="#F2F2F2" strokeWidth="1.4" strokeLinecap="round" />
<path id="Vector_4" d="M6.66663 19.1667H13.3333" stroke="#F2F2F2" strokeWidth="1.4" strokeLinecap="round" />
</g>
</svg>
