<svg width="24" height="24" viewBox="0 0 24 24" fill="none" xmlns="http://www.w3.org/2000/svg">
<g id="Report error">
<path id="Vector" d="M7.16667 3H4.66667C4.22464 3 3.80072 3.17559 3.48816 3.48816C3.17559 3.80072 3 4.22464 3 4.66667V7.16667M18 7.16667V4.66667C18 4.22464 17.8244 3.80072 17.5118 3.48816C17.1993 3.17559 16.7754 3 16.3333 3H13.8333M3 13.8333V16.3333C3 16.7754 3.17559 17.1993 3.48816 17.5118C3.80072 17.8244 4.22464 18 4.66667 18H7.16667" stroke="white" strokeWidth="1.4" strokeLinecap="round" strokeLinejoin="round"/>
<path id="Vector_2" d="M14.018 11.5318L9.15392 19.3428C9.05363 19.5099 9.00057 19.6993 9 19.8922C8.99944 20.0851 9.0514 20.2748 9.15071 20.4424C9.25003 20.61 9.39323 20.7496 9.56607 20.8475C9.73892 20.9453 9.93538 20.9979 10.1359 21H19.8641C20.0646 20.9979 20.2611 20.9453 20.4339 20.8475C20.6068 20.7496 20.75 20.61 20.8493 20.4424C20.9486 20.2748 21.0006 20.0851 21 19.8922C20.9994 19.6993 20.9464 19.5099 20.8461 19.3428L15.982 11.5318C15.8796 11.3695 15.7355 11.2352 15.5635 11.1421C15.3915 11.0489 15.1974 11 15 11C14.8026 11 14.6085 11.0489 14.4365 11.1421C14.2645 11.2352 14.1204 11.3695 14.018 11.5318Z" stroke="white" strokeWidth="1.4" strokeLinecap="round" strokeLinejoin="round"/>
<path id="Vector_3" d="M15 14V17" stroke="white" strokeWidth="1.4" strokeLinecap="round" strokeLinejoin="round"/>
<path id="Vector_4" d="M15 19.0513H15.0048" stroke="white" strokeWidth="1.4" strokeLinecap="round" strokeLinejoin="round"/>
</g>
</svg>
