<svg width="20" height="20" viewBox="0 0 20 20" fill="none" xmlns="http://www.w3.org/2000/svg">
<g id="Smile" clip-path="url(#clip0_318_9438)">
<g id="Group">
<g id="Clip path group">
<mask id="mask0_318_9438" style="mask-type:luminance" maskUnits="userSpaceOnUse" x="0" y="0" width="20" height="20">
<g id="f2238idh">
<path id="Vector" d="M0 0H20V20H0V0Z" fill="white"/>
</g>
</mask>
<g mask="url(#mask0_318_9438)">
<g id="Group_2">
<path id="Vector_2" d="M9.99937 18.7487C15.8331 18.7487 18.7487 14.8313 18.7487 9.99875C18.7487 5.1675 15.8331 1.25 9.99875 1.25C4.16563 1.25 1.25 5.1675 1.25 9.99937C1.25 14.8312 4.165 18.7487 9.99937 18.7487Z" fill="url(#paint0_radial_318_9438)"/>
<path id="Vector_3" d="M9.99937 18.7487C15.8331 18.7487 18.7487 14.8313 18.7487 9.99875C18.7487 5.1675 15.8331 1.25 9.99875 1.25C4.16563 1.25 1.25 5.1675 1.25 9.99937C1.25 14.8312 4.165 18.7487 9.99937 18.7487Z" fill="url(#paint1_radial_318_9438)"/>
<path id="Vector_4" d="M9.99937 18.7487C15.8331 18.7487 18.7487 14.8313 18.7487 9.99875C18.7487 5.1675 15.8331 1.25 9.99875 1.25C4.16563 1.25 1.25 5.1675 1.25 9.99937C1.25 14.8312 4.165 18.7487 9.99937 18.7487Z" fill="url(#paint2_radial_318_9438)"/>
<path id="Vector_5" d="M9.99937 18.7487C15.8331 18.7487 18.7487 14.8313 18.7487 9.99875C18.7487 5.1675 15.8331 1.25 9.99875 1.25C4.16563 1.25 1.25 5.1675 1.25 9.99937C1.25 14.8312 4.165 18.7487 9.99937 18.7487Z" fill="url(#paint3_radial_318_9438)" fill-opacity="0.6"/>
<path id="Vector_6" d="M9.99937 18.7487C15.8331 18.7487 18.7487 14.8313 18.7487 9.99875C18.7487 5.1675 15.8331 1.25 9.99875 1.25C4.16563 1.25 1.25 5.1675 1.25 9.99937C1.25 14.8312 4.165 18.7487 9.99937 18.7487Z" fill="url(#paint4_radial_318_9438)"/>
<path id="Vector_7" d="M9.99937 18.7487C15.8331 18.7487 18.7487 14.8313 18.7487 9.99875C18.7487 5.1675 15.8331 1.25 9.99875 1.25C4.16563 1.25 1.25 5.1675 1.25 9.99937C1.25 14.8312 4.165 18.7487 9.99937 18.7487Z" fill="url(#paint5_radial_318_9438)"/>
<path id="Vector_8" d="M9.99937 18.7487C15.8331 18.7487 18.7487 14.8313 18.7487 9.99875C18.7487 5.1675 15.8331 1.25 9.99875 1.25C4.16563 1.25 1.25 5.1675 1.25 9.99937C1.25 14.8312 4.165 18.7487 9.99937 18.7487Z" fill="url(#paint6_radial_318_9438)"/>
<path id="Vector_9" d="M9.99937 18.7487C15.8331 18.7487 18.7487 14.8313 18.7487 9.99875C18.7487 5.1675 15.8331 1.25 9.99875 1.25C4.16563 1.25 1.25 5.1675 1.25 9.99937C1.25 14.8312 4.165 18.7487 9.99937 18.7487Z" fill="url(#paint7_radial_318_9438)"/>
<path id="Vector_10" opacity="0.5" d="M4.6875 14.375C5.76494 14.375 6.79825 13.947 7.56012 13.1851C8.32199 12.4233 8.75 11.3899 8.75 10.3125C8.75 9.23506 8.32199 8.20175 7.56012 7.43988C6.79825 6.67801 5.76494 6.25 4.6875 6.25C3.61006 6.25 2.57675 6.67801 1.81488 7.43988C1.05301 8.20175 0.625 9.23506 0.625 10.3125C0.625 11.3899 1.05301 12.4233 1.81488 13.1851C2.57675 13.947 3.61006 14.375 4.6875 14.375Z" fill="url(#paint8_radial_318_9438)"/>
<path id="Vector_11" opacity="0.5" d="M15.3125 14.375C16.3899 14.375 17.4233 13.947 18.1851 13.1851C18.947 12.4233 19.375 11.3899 19.375 10.3125C19.375 9.23506 18.947 8.20175 18.1851 7.43988C17.4233 6.67801 16.3899 6.25 15.3125 6.25C14.2351 6.25 13.2017 6.67801 12.4399 7.43988C11.678 8.20175 11.25 9.23506 11.25 10.3125C11.25 11.3899 11.678 12.4233 12.4399 13.1851C13.2017 13.947 14.2351 14.375 15.3125 14.375Z" fill="url(#paint9_radial_318_9438)"/>
<g id="Group_3" opacity="0.5" filter="url(#filter0_f_318_9438)">
<path id="Vector_12" d="M4.6875 8.4375C4.6875 8.4375 4.84375 7.1875 6.25 7.1875C7.65625 7.1875 7.8125 8.4375 7.8125 8.4375" stroke="#9A4609" stroke-width="2" stroke-linecap="round"/>
</g>
<g id="Group_4" opacity="0.5" filter="url(#filter1_f_318_9438)">
<path id="Vector_13" d="M11.5625 8.4375C11.5625 8.4375 11.875 7.1875 13.125 7.1875C14.375 7.1875 14.6875 8.4375 14.6875 8.4375" stroke="#9A4609" stroke-width="2" stroke-linecap="round"/>
</g>
<path id="Vector_14" d="M5 8.125C5 8.125 5.15625 6.875 6.5625 6.875C7.96875 6.875 8.125 8.125 8.125 8.125" stroke="#43273B" stroke-width="2" stroke-linecap="round" stroke-linejoin="round"/>
<g id="Group_5" opacity="0.26" filter="url(#filter2_f_318_9438)">
<path id="Vector_15" d="M5.15625 7.96875C5.15625 7.96875 5.3125 6.71875 6.71875 6.71875C8.125 6.71875 8.28125 7.96875 8.28125 7.96875" stroke="white" stroke-width="0.75" stroke-linecap="round" stroke-linejoin="round"/>
</g>
<path id="Vector_16" d="M11.875 8.125C11.875 8.125 12.1875 6.875 13.4375 6.875C14.6875 6.875 15 8.125 15 8.125" stroke="#43273B" stroke-width="2" stroke-linecap="round" stroke-linejoin="round"/>
<g id="Group_6" opacity="0.26" filter="url(#filter3_f_318_9438)">
<path id="Vector_17" d="M12.0312 7.96875C12.0312 7.96875 12.1875 6.71875 13.5938 6.71875C15 6.71875 15.1562 7.96875 15.1562 7.96875" stroke="white" stroke-width="0.75" stroke-linecap="round" stroke-linejoin="round"/>
</g>
<path id="Vector_18" d="M4.0625 5.9375C4.27063 5.3125 5.0625 4.0625 6.5625 4.0625" stroke="url(#paint10_linear_318_9438)" stroke-linecap="round" stroke-linejoin="round"/>
<path id="Vector_19" d="M15.9375 5.9375C15.7294 5.3125 14.9375 4.0625 13.4375 4.0625" stroke="url(#paint11_linear_318_9438)" stroke-linecap="round" stroke-linejoin="round"/>
<path id="Vector_20" d="M6.25 11.875C6.5625 12.2919 7.8125 13.4375 10 13.4375C12.1875 13.4375 13.4375 12.2919 13.75 11.875" stroke="url(#paint12_radial_318_9438)" stroke-width="2" stroke-linecap="round"/>
</g>
</g>
</g>
</g>
</g>
<defs>
<filter id="filter0_f_318_9438" x="2.18738" y="4.6875" width="8.12524" height="6.25" filterUnits="userSpaceOnUse" color-interpolation-filters="sRGB">
<feFlood flood-opacity="0" result="BackgroundImageFix"/>
<feBlend mode="normal" in="SourceGraphic" in2="BackgroundImageFix" result="shape"/>
<feGaussianBlur stdDeviation="0.75" result="effect1_foregroundBlur_318_9438"/>
</filter>
<filter id="filter1_f_318_9438" x="9.06226" y="4.6875" width="8.12549" height="6.25024" filterUnits="userSpaceOnUse" color-interpolation-filters="sRGB">
<feFlood flood-opacity="0" result="BackgroundImageFix"/>
<feBlend mode="normal" in="SourceGraphic" in2="BackgroundImageFix" result="shape"/>
<feGaussianBlur stdDeviation="0.75" result="effect1_foregroundBlur_318_9438"/>
</filter>
<filter id="filter2_f_318_9438" x="3.28125" y="4.84375" width="6.875" height="5" filterUnits="userSpaceOnUse" color-interpolation-filters="sRGB">
<feFlood flood-opacity="0" result="BackgroundImageFix"/>
<feBlend mode="normal" in="SourceGraphic" in2="BackgroundImageFix" result="shape"/>
<feGaussianBlur stdDeviation="0.75" result="effect1_foregroundBlur_318_9438"/>
</filter>
<filter id="filter3_f_318_9438" x="10.1562" y="4.84375" width="6.875" height="5" filterUnits="userSpaceOnUse" color-interpolation-filters="sRGB">
<feFlood flood-opacity="0" result="BackgroundImageFix"/>
<feBlend mode="normal" in="SourceGraphic" in2="BackgroundImageFix" result="shape"/>
<feGaussianBlur stdDeviation="0.75" result="effect1_foregroundBlur_318_9438"/>
</filter>
<radialGradient id="paint0_radial_318_9438" cx="0" cy="0" r="1" gradientUnits="userSpaceOnUse" gradientTransform="translate(15.9376 5.62474) rotate(132.839) scale(23.4396)">
<stop stop-color="#FFF478"/>
<stop offset="0.475" stop-color="#FFB02E"/>
<stop offset="1" stop-color="#F70A8D"/>
</radialGradient>
<radialGradient id="paint1_radial_318_9438" cx="0" cy="0" r="1" gradientUnits="userSpaceOnUse" gradientTransform="translate(15.9368 5.6254) rotate(131.878) scale(24.3429)">
<stop stop-color="#FFF478"/>
<stop offset="0.475" stop-color="#FFB02E"/>
<stop offset="1" stop-color="#F70A8D"/>
</radialGradient>
<radialGradient id="paint2_radial_318_9438" cx="0" cy="0" r="1" gradientUnits="userSpaceOnUse" gradientTransform="translate(9.99957 7.81233) rotate(101.31) scale(11.1541 14.2863)">
<stop offset="0.788" stop-color="#F59639" stop-opacity="0"/>
<stop offset="0.973" stop-color="#FF7DCE"/>
</radialGradient>
<radialGradient id="paint3_radial_318_9438" cx="0" cy="0" r="1" gradientUnits="userSpaceOnUse" gradientTransform="translate(11.25 8.75) rotate(135) scale(25.6326)">
<stop offset="0.315" stop-opacity="0"/>
<stop offset="1"/>
</radialGradient>
<radialGradient id="paint4_radial_318_9438" cx="0" cy="0" r="1" gradientUnits="userSpaceOnUse" gradientTransform="translate(9.99997 10.6255) rotate(77.692) scale(17.5918)">
<stop offset="0.508" stop-color="#7D6133" stop-opacity="0"/>
<stop offset="1" stop-color="#715B32"/>
</radialGradient>
<radialGradient id="paint5_radial_318_9438" cx="0" cy="0" r="1" gradientUnits="userSpaceOnUse" gradientTransform="translate(10.3125 10.3125) rotate(55.713) scale(8.32093 6.03145)">
<stop stop-color="#FFB849"/>
<stop offset="1" stop-color="#FFB847" stop-opacity="0"/>
</radialGradient>
<radialGradient id="paint6_radial_318_9438" cx="0" cy="0" r="1" gradientUnits="userSpaceOnUse" gradientTransform="translate(12.8125 11.25) rotate(9.86582) scale(7.29537)">
<stop stop-color="#FFA64B"/>
<stop offset="0.9" stop-color="#FFAE46" stop-opacity="0"/>
</radialGradient>
<radialGradient id="paint7_radial_318_9438" cx="0" cy="0" r="1" gradientUnits="userSpaceOnUse" gradientTransform="translate(10.9375 9.37517) rotate(43.971) scale(36.9081)">
<stop offset="0.185" stop-opacity="0"/>
<stop offset="1" stop-opacity="0.4"/>
</radialGradient>
<radialGradient id="paint8_radial_318_9438" cx="0" cy="0" r="1" gradientUnits="userSpaceOnUse" gradientTransform="translate(4.69062 10.3131) scale(4.05929)">
<stop stop-color="#F70A8D" stop-opacity="0.59"/>
<stop offset="1" stop-color="#FF6DC6" stop-opacity="0"/>
</radialGradient>
<radialGradient id="paint9_radial_318_9438" cx="0" cy="0" r="1" gradientUnits="userSpaceOnUse" gradientTransform="translate(15.3156 10.3131) scale(4.05929)">
<stop stop-color="#F70A8D" stop-opacity="0.59"/>
<stop offset="1" stop-color="#FF6DC6" stop-opacity="0"/>
</radialGradient>
<linearGradient id="paint10_linear_318_9438" x1="4.27062" y1="6.5" x2="4.27062" y2="5.375" gradientUnits="userSpaceOnUse">
<stop offset="0.03" stop-color="#524049"/>
<stop offset="1" stop-color="#4A2C42"/>
</linearGradient>
<linearGradient id="paint11_linear_318_9438" x1="15.7294" y1="6.5" x2="15.7294" y2="5.375" gradientUnits="userSpaceOnUse">
<stop offset="0.03" stop-color="#524049"/>
<stop offset="1" stop-color="#4A2C42"/>
</linearGradient>
<radialGradient id="paint12_radial_318_9438" cx="0" cy="0" r="1" gradientUnits="userSpaceOnUse" gradientTransform="translate(11.1712 10.575) rotate(90) scale(7.18094)">
<stop offset="0.103" stop-color="#482641"/>
<stop offset="0.299" stop-color="#503A4A"/>
<stop offset="0.556" stop-color="#483637"/>
</radialGradient>
<clipPath id="clip0_318_9438">
<rect width="20" height="20" fill="white"/>
</clipPath>
</defs>
</svg>
