<svg width="20" height="20" viewBox="0 0 20 20" fill="none" xmlns="http://www.w3.org/2000/svg">
<g id="Star" clip-path="url(#clip0_318_9439)">
<g id="Group">
<g id="Group_2" filter="url(#filter0_dd_318_9439)">
<path id="Vector" d="M18.1118 10.8561L16.1693 10.9899C15.6481 11.028 15.4331 11.6649 15.8306 11.9955L17.3231 13.2174C17.6487 13.4843 18.1443 13.3443 18.275 12.9499L18.7181 11.6199C18.855 11.2255 18.5356 10.8243 18.1118 10.8561Z" fill="#F6C327"/>
</g>
<path id="Vector_2" d="M18.1118 10.8561L16.1693 10.9899C15.6481 11.028 15.4331 11.6649 15.8306 11.9955L17.3231 13.2174C17.6487 13.4843 18.1443 13.3443 18.275 12.9499L18.7181 11.6199C18.855 11.2255 18.5356 10.8243 18.1118 10.8561Z" fill="url(#paint0_radial_318_9439)"/>
<g id="Group_3" filter="url(#filter1_dd_318_9439)">
<path id="Vector_3" d="M13.5938 1.91253L13.1438 3.72503C13.0188 4.21253 13.5563 4.60628 13.9813 4.33753L15.5688 3.35003C15.9125 3.13753 15.9313 2.63753 15.6 2.40003L14.4875 1.59378C14.4122 1.53765 14.3243 1.50098 14.2314 1.48704C14.1386 1.47309 14.0437 1.4823 13.9553 1.51384C13.8669 1.54538 13.7876 1.59827 13.7245 1.66783C13.6614 1.73738 13.6165 1.82144 13.5938 1.91253Z" fill="#F4C226"/>
</g>
<path id="Vector_4" d="M13.5938 1.91253L13.1438 3.72503C13.0188 4.21253 13.5563 4.60628 13.9813 4.33753L15.5688 3.35003C15.9125 3.13753 15.9313 2.63753 15.6 2.40003L14.4875 1.59378C14.4122 1.53765 14.3243 1.50098 14.2314 1.48704C14.1386 1.47309 14.0437 1.4823 13.9553 1.51384C13.8669 1.54538 13.7876 1.59827 13.7245 1.66783C13.6614 1.73738 13.6165 1.82144 13.5938 1.91253Z" fill="url(#paint1_linear_318_9439)"/>
<g id="Group_4" filter="url(#filter2_dd_318_9439)">
<path id="Vector_5" d="M4.01873 3.35115L5.59998 4.33865C6.02498 4.6074 6.56248 4.2199 6.44373 3.72615L5.99373 1.91365C5.97068 1.82275 5.92575 1.73887 5.86285 1.66931C5.79996 1.59976 5.721 1.54665 5.63287 1.5146C5.54474 1.48255 5.45012 1.47255 5.35723 1.48545C5.26435 1.49836 5.17603 1.53379 5.09998 1.58865L3.98748 2.3949C3.65623 2.6449 3.67498 3.13865 4.01873 3.35115Z" fill="#EABA25"/>
</g>
<g id="Group_5" filter="url(#filter3_d_318_9439)">
<path id="Vector_6" d="M2.61561 13.175L4.04686 11.975C4.43436 11.65 4.22811 11.0187 3.72811 10.9875L1.86561 10.8562C1.77176 10.8495 1.6777 10.8659 1.59169 10.904C1.50568 10.9422 1.43035 11.0008 1.37233 11.0749C1.31431 11.149 1.27538 11.2362 1.25895 11.3288C1.24252 11.4214 1.2491 11.5167 1.27811 11.6062L1.70311 12.9125C1.82811 13.3 2.30936 13.4375 2.61561 13.175Z" fill="#DFAD26"/>
<path id="Vector_7" d="M2.61561 13.175L4.04686 11.975C4.43436 11.65 4.22811 11.0187 3.72811 10.9875L1.86561 10.8562C1.77176 10.8495 1.6777 10.8659 1.59169 10.904C1.50568 10.9422 1.43035 11.0008 1.37233 11.0749C1.31431 11.149 1.27538 11.2362 1.25895 11.3288C1.24252 11.4214 1.2491 11.5167 1.27811 11.6062L1.70311 12.9125C1.82811 13.3 2.30936 13.4375 2.61561 13.175Z" fill="url(#paint2_linear_318_9439)"/>
</g>
<g id="Group_6" filter="url(#filter4_d_318_9439)">
<path id="Vector_8" d="M11.1218 17.7325L10.4218 16.0012C10.2343 15.5325 9.57181 15.5325 9.38431 16.0012L8.68431 17.7325C8.53431 18.1075 8.80931 18.52 9.21556 18.52H10.5906C10.6841 18.5193 10.7761 18.4959 10.8586 18.4517C10.941 18.4075 11.0115 18.3438 11.0638 18.2663C11.1161 18.1887 11.1488 18.0996 11.1589 18.0066C11.169 17.9135 11.1563 17.8195 11.1218 17.7325Z" fill="#E3B028"/>
<path id="Vector_9" d="M11.1218 17.7325L10.4218 16.0012C10.2343 15.5325 9.57181 15.5325 9.38431 16.0012L8.68431 17.7325C8.53431 18.1075 8.80931 18.52 9.21556 18.52H10.5906C10.6841 18.5193 10.7761 18.4959 10.8586 18.4517C10.941 18.4075 11.0115 18.3438 11.0638 18.2663C11.1161 18.1887 11.1488 18.0996 11.1589 18.0066C11.169 17.9135 11.1563 17.8195 11.1218 17.7325Z" fill="url(#paint3_linear_318_9439)"/>
</g>
<g id="Group_7" filter="url(#filter5_ddd_318_9439)">
<path id="Vector_10" d="M10.9775 2.30746L12.0569 4.63246C12.2607 5.06621 12.6613 5.36996 13.13 5.43809L15.665 5.82871C16.8119 6.00246 17.2744 7.40996 16.4732 8.23996L14.5425 10.2306C14.3873 10.3909 14.2718 10.5855 14.2054 10.7985C14.139 11.0116 14.1234 11.2373 14.16 11.4575L14.6038 14.1918C14.7957 15.3693 13.5494 16.25 12.5075 15.6731L10.3794 14.4893C10.1686 14.3705 9.93075 14.3081 9.68878 14.3081C9.44681 14.3081 9.20894 14.3705 8.99816 14.4893L6.87066 15.6737C5.82816 16.25 4.58253 15.3693 4.77378 14.1918L5.21753 11.4575C5.25412 11.2373 5.23858 11.0116 5.17215 10.7985C5.10572 10.5855 4.99026 10.3909 4.83503 10.2306L2.90503 8.24059C2.09691 7.40309 2.56566 6.00246 3.71316 5.82809L6.24753 5.43809C6.47837 5.40079 6.69668 5.3079 6.88363 5.16745C7.07058 5.02699 7.22057 4.84317 7.32066 4.63184L8.40003 2.30684C8.91191 1.20371 10.4663 1.20434 10.9775 2.30746Z" fill="url(#paint4_radial_318_9439)"/>
<path id="Vector_11" d="M10.9775 2.30746L12.0569 4.63246C12.2607 5.06621 12.6613 5.36996 13.13 5.43809L15.665 5.82871C16.8119 6.00246 17.2744 7.40996 16.4732 8.23996L14.5425 10.2306C14.3873 10.3909 14.2718 10.5855 14.2054 10.7985C14.139 11.0116 14.1234 11.2373 14.16 11.4575L14.6038 14.1918C14.7957 15.3693 13.5494 16.25 12.5075 15.6731L10.3794 14.4893C10.1686 14.3705 9.93075 14.3081 9.68878 14.3081C9.44681 14.3081 9.20894 14.3705 8.99816 14.4893L6.87066 15.6737C5.82816 16.25 4.58253 15.3693 4.77378 14.1918L5.21753 11.4575C5.25412 11.2373 5.23858 11.0116 5.17215 10.7985C5.10572 10.5855 4.99026 10.3909 4.83503 10.2306L2.90503 8.24059C2.09691 7.40309 2.56566 6.00246 3.71316 5.82809L6.24753 5.43809C6.47837 5.40079 6.69668 5.3079 6.88363 5.16745C7.07058 5.02699 7.22057 4.84317 7.32066 4.63184L8.40003 2.30684C8.91191 1.20371 10.4663 1.20434 10.9775 2.30746Z" fill="url(#paint5_radial_318_9439)"/>
</g>
</g>
</g>
<defs>
<filter id="filter0_dd_318_9439" x="14.5251" y="9.75425" width="5.17512" height="4.70049" filterUnits="userSpaceOnUse" color-interpolation-filters="sRGB">
<feFlood flood-opacity="0" result="BackgroundImageFix"/>
<feColorMatrix in="SourceAlpha" type="matrix" values="0 0 0 0 0 0 0 0 0 0 0 0 0 0 0 0 0 0 127 0" result="hardAlpha"/>
<feOffset dx="0.25" dy="-0.4"/>
<feGaussianBlur stdDeviation="0.35"/>
<feComposite in2="hardAlpha" operator="out"/>
<feColorMatrix type="matrix" values="0 0 0 0 0.858824 0 0 0 0 0.607843 0 0 0 0 0.278431 0 0 0 1 0"/>
<feBlend mode="normal" in2="BackgroundImageFix" result="effect1_dropShadow_318_9439"/>
<feColorMatrix in="SourceAlpha" type="matrix" values="0 0 0 0 0 0 0 0 0 0 0 0 0 0 0 0 0 0 127 0" result="hardAlpha"/>
<feOffset dx="-0.1" dy="0.1"/>
<feGaussianBlur stdDeviation="0.5"/>
<feComposite in2="hardAlpha" operator="out"/>
<feColorMatrix type="matrix" values="0 0 0 0 0.996078 0 0 0 0 0.945098 0 0 0 0 0.372549 0 0 0 1 0"/>
<feBlend mode="normal" in2="effect1_dropShadow_318_9439" result="effect2_dropShadow_318_9439"/>
<feBlend mode="normal" in="SourceGraphic" in2="effect2_dropShadow_318_9439" result="shape"/>
</filter>
<filter id="filter1_dd_318_9439" x="11.9754" y="0.480713" width="5.36252" height="5.09409" filterUnits="userSpaceOnUse" color-interpolation-filters="sRGB">
<feFlood flood-opacity="0" result="BackgroundImageFix"/>
<feColorMatrix in="SourceAlpha" type="matrix" values="0 0 0 0 0 0 0 0 0 0 0 0 0 0 0 0 0 0 127 0" result="hardAlpha"/>
<feOffset dx="-0.4" dy="0.4"/>
<feGaussianBlur stdDeviation="0.375"/>
<feComposite in2="hardAlpha" operator="out"/>
<feColorMatrix type="matrix" values="0 0 0 0 1 0 0 0 0 0.94902 0 0 0 0 0.294118 0 0 0 1 0"/>
<feBlend mode="normal" in2="BackgroundImageFix" result="effect1_dropShadow_318_9439"/>
<feColorMatrix in="SourceAlpha" type="matrix" values="0 0 0 0 0 0 0 0 0 0 0 0 0 0 0 0 0 0 127 0" result="hardAlpha"/>
<feOffset dx="0.5"/>
<feGaussianBlur stdDeviation="0.5"/>
<feComposite in2="hardAlpha" operator="out"/>
<feColorMatrix type="matrix" values="0 0 0 0 0.909804 0 0 0 0 0.705882 0 0 0 0 0.168627 0 0 0 1 0"/>
<feBlend mode="normal" in2="effect1_dropShadow_318_9439" result="effect2_dropShadow_318_9439"/>
<feBlend mode="normal" in="SourceGraphic" in2="effect2_dropShadow_318_9439" result="shape"/>
</filter>
<filter id="filter2_dd_318_9439" x="2.84963" y="0.47998" width="4.61082" height="4.84678" filterUnits="userSpaceOnUse" color-interpolation-filters="sRGB">
<feFlood flood-opacity="0" result="BackgroundImageFix"/>
<feColorMatrix in="SourceAlpha" type="matrix" values="0 0 0 0 0 0 0 0 0 0 0 0 0 0 0 0 0 0 127 0" result="hardAlpha"/>
<feOffset dx="-0.3" dy="0.3"/>
<feGaussianBlur stdDeviation="0.3"/>
<feComposite in2="hardAlpha" operator="out"/>
<feColorMatrix type="matrix" values="0 0 0 0 1 0 0 0 0 0.905882 0 0 0 0 0.298039 0 0 0 1 0"/>
<feBlend mode="normal" in2="BackgroundImageFix" result="effect1_dropShadow_318_9439"/>
<feColorMatrix in="SourceAlpha" type="matrix" values="0 0 0 0 0 0 0 0 0 0 0 0 0 0 0 0 0 0 127 0" result="hardAlpha"/>
<feOffset dx="0.4" dy="-0.4"/>
<feGaussianBlur stdDeviation="0.3"/>
<feComposite in2="hardAlpha" operator="out"/>
<feColorMatrix type="matrix" values="0 0 0 0 0.894118 0 0 0 0 0.658824 0 0 0 0 0.160784 0 0 0 1 0"/>
<feBlend mode="normal" in2="effect1_dropShadow_318_9439" result="effect2_dropShadow_318_9439"/>
<feBlend mode="normal" in="SourceGraphic" in2="effect2_dropShadow_318_9439" result="shape"/>
</filter>
<filter id="filter3_d_318_9439" x="0.500122" y="10.1047" width="3.99841" height="3.45532" filterUnits="userSpaceOnUse" color-interpolation-filters="sRGB">
<feFlood flood-opacity="0" result="BackgroundImageFix"/>
<feColorMatrix in="SourceAlpha" type="matrix" values="0 0 0 0 0 0 0 0 0 0 0 0 0 0 0 0 0 0 127 0" result="hardAlpha"/>
<feOffset dx="-0.25" dy="-0.25"/>
<feGaussianBlur stdDeviation="0.25"/>
<feComposite in2="hardAlpha" operator="out"/>
<feColorMatrix type="matrix" values="0 0 0 0 0.854902 0 0 0 0 0.615686 0 0 0 0 0.219608 0 0 0 1 0"/>
<feBlend mode="normal" in2="BackgroundImageFix" result="effect1_dropShadow_318_9439"/>
<feBlend mode="normal" in="SourceGraphic" in2="effect1_dropShadow_318_9439" result="shape"/>
</filter>
<filter id="filter4_d_318_9439" x="8.14282" y="14.3497" width="4.51941" height="4.87036" filterUnits="userSpaceOnUse" color-interpolation-filters="sRGB">
<feFlood flood-opacity="0" result="BackgroundImageFix"/>
<feColorMatrix in="SourceAlpha" type="matrix" values="0 0 0 0 0 0 0 0 0 0 0 0 0 0 0 0 0 0 127 0" result="hardAlpha"/>
<feOffset dx="0.5" dy="-0.3"/>
<feGaussianBlur stdDeviation="0.5"/>
<feComposite in2="hardAlpha" operator="out"/>
<feColorMatrix type="matrix" values="0 0 0 0 0.831373 0 0 0 0 0.588235 0 0 0 0 0.282353 0 0 0 1 0"/>
<feBlend mode="normal" in2="BackgroundImageFix" result="effect1_dropShadow_318_9439"/>
<feBlend mode="normal" in="SourceGraphic" in2="effect1_dropShadow_318_9439" result="shape"/>
</filter>
<filter id="filter5_ddd_318_9439" x="-0.5" y="-2.02026" width="20.375" height="20.6252" filterUnits="userSpaceOnUse" color-interpolation-filters="sRGB">
<feFlood flood-opacity="0" result="BackgroundImageFix"/>
<feColorMatrix in="SourceAlpha" type="matrix" values="0 0 0 0 0 0 0 0 0 0 0 0 0 0 0 0 0 0 127 0" result="hardAlpha"/>
<feOffset dy="-0.5"/>
<feGaussianBlur stdDeviation="1.5"/>
<feComposite in2="hardAlpha" operator="out"/>
<feColorMatrix type="matrix" values="0 0 0 0 0.772549 0 0 0 0 0.494118 0 0 0 0 0.282353 0 0 0 1 0"/>
<feBlend mode="normal" in2="BackgroundImageFix" result="effect1_dropShadow_318_9439"/>
<feColorMatrix in="SourceAlpha" type="matrix" values="0 0 0 0 0 0 0 0 0 0 0 0 0 0 0 0 0 0 127 0" result="hardAlpha"/>
<feOffset dx="-1.25" dy="1.25"/>
<feGaussianBlur stdDeviation="0.75"/>
<feComposite in2="hardAlpha" operator="out"/>
<feColorMatrix type="matrix" values="0 0 0 0 1 0 0 0 0 0.952941 0 0 0 0 0.286275 0 0 0 1 0"/>
<feBlend mode="normal" in2="effect1_dropShadow_318_9439" result="effect2_dropShadow_318_9439"/>
<feColorMatrix in="SourceAlpha" type="matrix" values="0 0 0 0 0 0 0 0 0 0 0 0 0 0 0 0 0 0 127 0" result="hardAlpha"/>
<feOffset dx="1.5" dy="-0.5"/>
<feGaussianBlur stdDeviation="0.75"/>
<feComposite in2="hardAlpha" operator="out"/>
<feColorMatrix type="matrix" values="0 0 0 0 0.839216 0 0 0 0 0.619608 0 0 0 0 0.121569 0 0 0 1 0"/>
<feBlend mode="normal" in2="effect2_dropShadow_318_9439" result="effect3_dropShadow_318_9439"/>
<feBlend mode="normal" in="SourceGraphic" in2="effect3_dropShadow_318_9439" result="shape"/>
</filter>
<radialGradient id="paint0_radial_318_9439" cx="0" cy="0" r="1" gradientUnits="userSpaceOnUse" gradientTransform="translate(16.5037 12.2024) rotate(-27.3239) scale(2.63809 3.65926)">
<stop offset="0.747" stop-color="#FFF055" stop-opacity="0"/>
<stop offset="1" stop-color="#FFF055"/>
</radialGradient>
<linearGradient id="paint1_linear_318_9439" x1="15.4494" y1="1.77253" x2="15.0194" y2="2.41753" gradientUnits="userSpaceOnUse">
<stop stop-color="#FFF659"/>
<stop offset="1" stop-color="#FFF659" stop-opacity="0"/>
</linearGradient>
<linearGradient id="paint2_linear_318_9439" x1="2.74936" y1="10.855" x2="2.74936" y2="11.48" gradientUnits="userSpaceOnUse">
<stop stop-color="#DEAE2C"/>
<stop offset="1" stop-color="#DEAE2C" stop-opacity="0"/>
</linearGradient>
<linearGradient id="paint3_linear_318_9439" x1="11.0156" y1="17.085" x2="10.3318" y2="17.3781" gradientUnits="userSpaceOnUse">
<stop stop-color="#F9C83C"/>
<stop offset="1" stop-color="#F9C83C" stop-opacity="0"/>
</linearGradient>
<radialGradient id="paint4_radial_318_9439" cx="0" cy="0" r="1" gradientUnits="userSpaceOnUse" gradientTransform="translate(14.0648 5.07141) rotate(132.911) scale(10.2915 10.1841)">
<stop stop-color="#FAC632"/>
<stop offset="1" stop-color="#F7C632"/>
</radialGradient>
<radialGradient id="paint5_radial_318_9439" cx="0" cy="0" r="1" gradientUnits="userSpaceOnUse" gradientTransform="translate(9.68753 8.66746) rotate(90) scale(7.1875)">
<stop stop-color="#DDBA38"/>
<stop offset="1" stop-color="#DDBA38" stop-opacity="0"/>
</radialGradient>
<clipPath id="clip0_318_9439">
<rect width="20" height="20" fill="white"/>
</clipPath>
</defs>
</svg>
