<svg width="20" height="20" viewBox="0 0 20 20" fill="none" xmlns="http://www.w3.org/2000/svg">
<g id="mic" clipPath="url(#clip0_218_7853)">
<path id="Vector" d="M0.833374 0.833252L19.1667 19.1666" stroke="#F24A4A" strokeWidth="1.4" strokeLinecap="round" strokeLinejoin="round"/>
<path id="Vector_2" d="M7.5 7.5V10C7.50043 10.4941 7.64729 10.9771 7.92203 11.3878C8.19676 11.7985 8.58704 12.1186 9.04359 12.3076C9.50013 12.4967 10.0025 12.5462 10.4871 12.4499C10.9718 12.3536 11.417 12.1158 11.7667 11.7667M12.5 7.78333V3.33333C12.5006 2.71335 12.2709 2.11526 11.8553 1.65516C11.4398 1.19506 10.8681 0.90578 10.2512 0.843473C9.63441 0.781166 9.01643 0.95028 8.51726 1.31799C8.0181 1.68569 7.67337 2.22575 7.55 2.83333" stroke="#F24A4A" strokeWidth="1.4" strokeLinecap="round" strokeLinejoin="round"/>
<path id="Vector_3" d="M14.1667 14.1249C13.3531 14.9553 12.3101 15.5236 11.1713 15.7571C10.0326 15.9905 8.85002 15.8784 7.77541 15.4352C6.70079 14.9919 5.78313 14.2376 5.14014 13.2692C4.49714 12.3008 4.15816 11.1623 4.16666 9.99992V8.33325M15.8333 8.33325V9.99992C15.833 10.3436 15.8024 10.6866 15.7417 11.0249" stroke="#F24A4A" strokeWidth="1.4" strokeLinecap="round" strokeLinejoin="round"/>
<path id="Vector_4" d="M10 15.8333V19.1666" stroke="#F24A4A" strokeWidth="1.4" strokeLinecap="round" strokeLinejoin="round"/>
<path id="Vector_5" d="M6.66663 19.1667H13.3333" stroke="#F24A4A" strokeWidth="1.4" strokeLinecap="round" strokeLinejoin="round"/>
</g>
<defs>
<clipPath id="clip0_218_7853">
<rect width="20" height="20" fill="white"/>
</clipPath>
</defs>
</svg>
